<?xml version="1.0" encoding="UTF-8"?>
<!DOCTYPE svg PUBLIC "-//W3C//DTD SVG 1.1//EN" "http://www.w3.org/Graphics/SVG/1.1/DTD/svg11.dtd">
<!-- Creator: CorelDRAW 2018 (64-Bit Evaluation Version) -->
<svg xmlns="http://www.w3.org/2000/svg" xml:space="preserve" width="420.118mm" height="75.0876mm" version="1.1" style="shape-rendering:geometricPrecision; text-rendering:geometricPrecision; image-rendering:optimizeQuality; fill-rule:evenodd; clip-rule:evenodd"
viewBox="0 0 42381.18 7574.78"
 xmlns:xlink="http://www.w3.org/1999/xlink">
 <defs>
  <style type="text/css">
   <![CDATA[
    .str0 {stroke:black;stroke-width:50.44;stroke-miterlimit:22.9256}
    .str1 {stroke:white;stroke-width:50.44;stroke-miterlimit:22.9256}
    .fil9 {fill:none}
    .fil6 {fill:#010101}
    .fil3 {fill:#053466}
    .fil0 {fill:#0C3252}
    .fil5 {fill:#156AB6}
    .fil4 {fill:#156DB7}
    .fil2 {fill:#1F1F1F}
    .fil1 {fill:white}
    .fil7 {fill:white;fill-rule:nonzero}
    .fil8 {fill:white;fill-rule:nonzero}
   ]]>
  </style>
 </defs>
<symbol id="Infnet_x0020_Logo" viewBox="-184.7 383.66 42381.18 7574.78">
 <polygon class="fil0" points="-184.7,383.66 42196.48,383.66 42196.48,7958.45 -184.7,7958.45 "/>
 <path class="fil1 str0" d="M7522.28 4171.06c0,-1955.13 -1584.94,-3540.08 -3540.08,-3540.08 -1955.13,0 -3540.08,1584.94 -3540.08,3540.08 0,1955.13 1584.94,3540.08 3540.08,3540.08 1955.13,0 3540.08,-1584.94 3540.08,-3540.08z"/>
 <path class="fil1 str0" d="M6482.79 4171.06c0,-1381.03 -1119.56,-2500.59 -2500.59,-2500.59 -1381.03,0 -2500.59,1119.56 -2500.59,2500.59 0,1381.03 1119.56,2500.59 2500.59,2500.59 1381.03,0 2500.59,-1119.56 2500.59,-2500.59z"/>
 <path class="fil2" d="M899.63 4802.61c8.24,-4.14 92.74,-136.06 105.11,-142.24 28.85,12.37 125.73,96.87 146.34,98.93 0,-2.07 -10.31,-70.08 -12.37,-76.27 -8.24,-37.1 -16.48,-30.93 -43.28,-51.53 -18.55,-12.36 -92.77,-70.1 -111.3,-76.27l-94.8 134.01c-8.24,12.37 -8.24,18.55 -4.11,35.04 4.11,20.61 8.24,61.85 14.43,78.34l-0.02 0z"/>
 <path class="fil2" d="M1954.87 6396.12l14.44 181.4c26.78,18.55 61.82,55.66 80.38,61.84 -4.11,-59.78 -10.31,-113.38 -12.37,-175.23 35.04,-6.18 140.15,-8.24 177.24,-12.37 -8.25,-14.44 -32.99,-30.93 -43.29,-39.16 -30.93,-26.8 -32.98,-32.99 -53.59,-30.93 -51.52,8.23 -109.23,6.18 -162.83,14.43l0.01 0.02z"/>
 <path class="fil2" d="M6820.86 4761.38c14.44,-6.18 55.66,-37.1 72.14,-49.48 20.62,-14.44 53.59,-43.29 72.14,-51.52 16.48,10.31 84.5,121.62 107.16,142.24 22.68,-121.63 26.8,-90.7 -47.39,-191.73 -12.37,-16.48 -28.86,-37.1 -37.1,-55.67 -18.55,4.14 -109.24,76.27 -136.04,92.78 -26.8,16.48 -16.48,32.98 -22.67,70.08 -4.14,20.61 -8.25,22.69 -8.25,43.31l0.01 -0.01z"/>
 <path class="fil2" d="M852.22 4530.48l88.63 -98.93c10.31,-12.37 20.6,-26.79 30.93,-35.05 14.42,6.18 20.6,16.48 32.97,26.79 12.37,10.32 22.67,20.62 35.04,28.87 12.37,12.37 20.62,16.48 30.93,28.85 12.37,10.31 22.67,24.75 37.1,26.79 2.05,-20.61 -2.07,-63.9 -4.14,-84.52 -4.11,-30.92 -68,-72.13 -90.67,-90.69 -14.44,-14.43 -32.98,-37.1 -51.52,-41.22l-80.38 94.82c-28.87,32.99 -37.1,30.93 -32.99,57.72 4.11,26.8 2.07,57.73 4.11,86.58l-0.01 -0.03z"/>
 <path class="fil2" d="M5099.93 6833.14l80.38 28.85c18.55,4.14 26.79,8.25 45.36,12.38 10.31,4.11 28.85,10.32 41.22,14.44 0,16.48 -47.4,142.23 -51.52,169.02 18.54,-4.11 45.35,-20.6 63.89,-28.85 47.39,-24.75 24.72,-22.69 61.83,-117.51 6.18,-18.55 18.55,-49.48 22.67,-68.03l-138.08 -47.41c-41.22,-12.37 -26.8,-14.43 -63.89,4.14 -14.44,8.23 -49.47,22.67 -61.84,32.98l-0.01 0.01z"/>
 <path class="fil2" d="M1643.65 6262.11c8.25,-8.24 16.48,-144.3 18.55,-171.09 35.04,-4.14 127.79,10.31 175.19,10.31 -4.13,-10.31 -43.29,-55.67 -55.66,-70.08 -16.48,-20.62 -68.01,-10.31 -107.16,-16.48 -16.48,-4.11 -59.76,-10.32 -76.25,-8.25 -10.32,14.44 -6.18,47.41 -10.32,76.27 -2.05,22.7 -6.17,51.52 -6.17,74.22 -2.06,45.35 2.06,35.05 22.69,59.78 8.23,10.31 28.85,39.16 39.14,45.35l0 -0.02z"/>
 <path class="fil2" d="M6779.64 4909.81c0,22.67 -20.61,74.21 -20.61,96.87 30.93,-10.31 131.9,-82.45 154.59,-86.57l88.61 150.49c8.24,-16.48 14.43,-51.52 20.61,-72.14 8.24,-39.16 4.13,-35.05 -14.43,-63.9 -12.37,-20.62 -59.75,-107.19 -72.13,-117.49 -28.85,10.31 -123.66,76.26 -156.63,92.76l-0.02 -0.02z"/>
 <path class="fil2" d="M6565.32 5480.82c12.37,-6.18 26.78,-12.37 41.22,-16.48 20.62,-8.25 113.36,-45.37 125.73,-45.37 12.37,20.62 49.46,136.07 63.89,164.94 10.31,-12.37 20.61,-43.31 28.85,-59.78 22.69,-51.55 14.43,-28.86 -16.48,-117.52 0,-6.18 -4.12,-10.31 -6.18,-16.48 -8.24,-24.75 -14.43,-45.36 -26.79,-68.02 -10.31,2.05 -119.53,41.23 -133.97,49.46 -35.04,16.48 -28.85,0 -47.4,41.23 -8.24,16.49 -24.72,51.55 -28.85,68.03z"/>
 <path class="fil2" d="M6674.54 5245.81c16.49,-2.06 138.09,-68.02 158.69,-72.13 16.48,20.61 65.96,146.35 80.39,156.67 6.18,-18.56 16.48,-47.41 22.67,-68.02 14.42,-41.23 10.31,-26.8 -8.25,-65.98l-57.7 -123.68c-20.62,6.18 -74.2,35.05 -101,45.35 -51.52,22.69 -61.83,22.69 -72.14,57.72 -6.18,16.49 -22.67,55.67 -22.67,70.11l0.01 -0.04z"/>
 <path class="fil2" d="M1130.46 5489.07l45.35 94.83c6.18,-10.32 53.59,-146.36 61.83,-164.94 14.44,0 90.69,30.93 105.11,37.1l63.91 24.73c-4.14,-14.44 -20.62,-47.42 -26.8,-61.85 -20.6,-45.35 -14.42,-32.99 -49.45,-47.41 -16.48,-6.18 -119.54,-47.41 -136.04,-47.41 -10.32,18.56 -24.73,59.79 -30.93,80.4l-24.73 61.84c-2.06,8.25 -6.18,16.48 -8.24,22.69l0 0.03z"/>
 <path class="fil2" d="M1058.32 5332.4c12.37,-10.31 63.89,-138.11 80.38,-160.79l80.39 37.1c18.54,10.31 59.75,32.98 78.31,37.09 -2.06,-12.37 -16.48,-51.52 -22.67,-65.96 -16.48,-49.47 -24.72,-37.09 -109.23,-78.34l-63.89 -28.85 -74.21 154.61c-4.11,14.44 24.73,90.7 30.93,105.15l-0.02 0z"/>
 <path class="fil2" d="M940.85 4969.58c4.11,18.54 18.55,86.57 26.78,96.9l90.69 -146.38c12.37,2.07 61.83,32.98 76.25,43.31 18.55,10.31 57.72,37.1 78.32,43.29 0,-16.49 -14.43,-55.66 -18.55,-72.14 -6.18,-35.05 4.13,-20.62 -41.22,-49.47 -14.43,-8.24 -111.29,-68.02 -117.47,-65.98 -8.25,2.07 -88.62,142.24 -94.8,150.49l-0.01 -0.03z"/>
 <path class="fil2" d="M2379.42 6711.52c0,14.43 10.32,57.72 16.49,72.13 2.06,12.37 4.13,22.7 6.18,35.05 24.72,90.7 -6.18,53.6 105.12,123.7 0,-30.93 -39.17,-152.56 -37.1,-175.23l82.44 -20.61c24.73,-6.18 65.96,-12.38 86.55,-20.62 -4.13,-12.38 0,-4.13 -24.73,-18.56 -65.95,-37.1 -32.98,-45.35 -160.75,-12.37 -22.7,4.14 -51.52,14.44 -74.21,16.48l0 0.03z"/>
 <path class="fil2" d="M6451.95 5880.75l18.55 -4.11 0 16.48c6.18,10.31 12.37,59.78 16.48,78.34 4.11,22.69 4.11,61.85 16.48,78.34l57.73 -82.46 -28.86 -173.15c-16.48,-6.18 -121.59,18.55 -148.39,22.67 -41.22,4.13 -39.14,14.44 -70.07,57.72 -4.11,6.18 -6.18,8.25 -8.25,14.44 -8.23,10.31 -6.18,4.11 -10.31,16.48 32.98,0 129.83,-24.72 156.63,-24.72l0.01 -0.05z"/>
 <path class="fil2" d="M6862.09 4507.81c14.44,-4.11 101,-82.45 117.48,-96.87l18.55 -14.44c12.35,8.25 20.61,20.61 28.85,32.98l59.76 65.96c8.24,10.32 20.6,28.86 30.93,30.93 2.05,-26.79 2.05,-55.67 4.11,-82.46 2.06,-18.55 2.06,-20.62 -10.31,-32.98l-92.77 -109.26c-4.11,-2.07 -2.06,-2.07 -6.18,-4.11 0,-2.07 0,-2.07 0,-2.07 -2.06,0 -2.06,-2.07 -2.06,-2.07l-4.11 -2.05c-18.55,12.37 -30.93,24.72 -49.47,41.22 -16.48,14.43 -30.91,24.75 -47.4,41.23 -30.93,24.75 -41.22,26.79 -41.22,49.48 0,28.86 -4.11,53.6 -6.18,84.51l0.02 -0.01z"/>
 <path class="fil2" d="M6132.5 6101.31c43.29,0 166.94,-18.55 175.19,-8.25 4.11,8.25 8.25,72.16 10.31,84.52 0,26.79 2.07,59.78 4.14,86.57 12.37,-4.11 12.37,-10.31 22.67,-20.61 30.93,-35.05 47.4,-47.41 45.35,-82.46 0,-20.62 -10.31,-140.18 -16.48,-152.56 -8.25,-2.07 -138.08,10.31 -152.52,12.37 -22.67,4.13 -22.67,-6.18 -51.52,32.98 -12.37,14.44 -28.85,32.99 -37.1,47.41l-0.02 0.03z"/>
 <path class="fil2" d="M2160.97 6563.09c8.23,47.42 18.55,105.15 24.72,150.48 4.14,39.18 12.37,33 35.06,51.55 12.37,8.24 39.14,30.92 53.58,35.05l-26.79 -169.04 18.55 -8.25c26.79,-6.18 53.59,-6.18 65.96,-10.31 24.72,-6.18 61.83,-10.31 88.62,-14.42 -4.12,-8.25 -35.04,-28.87 -45.36,-37.1 -22.67,-16.48 -30.93,-26.8 -59.75,-22.69 -14.44,4.13 -24.73,2.06 -39.17,6.19l-115.42 18.54z"/>
 <path class="fil2" d="M5551.3 6596.07c24.73,10.31 59.76,8.25 86.55,16.48 14.44,4.13 26.8,2.07 43.29,6.19 6.18,0 14.42,2.06 22.67,4.11l20.62 6.18 -26.8 171.11c14.44,-4.14 39.14,-26.8 51.52,-35.06 22.7,-16.48 30.93,-14.43 37.1,-49.47 6.18,-49.47 20.61,-103.08 22.67,-152.56l-146.33 -22.69c-41.22,-6.18 -35.04,-2.07 -61.83,18.55 -14.43,10.31 -41.22,22.69 -49.46,37.09l0 0.05z"/>
 <path class="fil2" d="M6439.6 5699.34c10.31,-4.13 12.36,-2.06 22.67,-4.13 32.98,-10.31 129.82,-43.29 150.45,-39.16l45.35 166.96c4.14,-4.11 2.07,-2.05 6.18,-6.18 2.07,-2.05 4.14,-4.11 4.14,-6.18 39.14,-63.9 45.35,-65.95 35.04,-109.24 -12.37,-45.37 -26.8,-92.78 -39.17,-140.19l-105.11 28.87c-12.37,2.06 -10.31,2.06 -20.61,4.11 -63.89,24.75 -37.09,-2.06 -65.96,45.36 -12.37,18.55 -26.78,43.29 -32.97,59.78l0 0.02z"/>
 <path class="fil2" d="M5759.47 6451.77l175.18 12.37c4.13,59.79 -14.43,117.51 -10.32,175.23 8.25,-4.12 49.47,-41.22 68.02,-55.66 12.37,-10.31 8.23,-12.37 10.31,-32.98 2.07,-14.44 4.11,-16.49 4.11,-32.99 0,-28.86 10.32,-111.31 4.14,-121.62 -37.1,-8.25 -109.24,-8.25 -152.52,-12.39 -20.61,-2.05 -20.61,-6.17 -32.98,6.18 -12.37,12.38 -65.96,49.48 -65.96,61.85l0.03 0z"/>
 <path class="fil2" d="M1837.39 6462.08l2.06 -175.22 177.23 -2.07c-6.18,-12.37 -22.67,-26.79 -32.98,-37.1 -12.37,-12.38 -24.73,-24.75 -37.1,-37.09l-177.24 -2.07c-2.06,51.54 -4.11,105.14 -4.11,158.72 0,18.55 -2.06,22.67 8.24,32.99l49.46 51.52c8.25,8.25 4.12,4.13 14.44,10.31l0 0.01z"/>
 <path class="fil2" d="M1311.83 5823.01l45.35 -166.96c14.44,-2.06 150.45,37.09 175.19,45.36 -8.24,-18.56 -20.61,-39.17 -30.93,-57.72 -14.43,-28.87 -14.43,-32.99 -30.93,-39.17l-90.68 -22.69c-26.78,-6.18 -49.46,-16.48 -72.14,-20.62 -14.42,43.31 -26.78,94.83 -39.14,142.24 -10.31,41.24 -10.31,28.87 10.31,63.91 6.18,12.37 24.73,49.46 32.99,55.65l-0.01 0.01z"/>
 <path class="fil2" d="M2606.14 6843.44l47.4 138.11c16.48,45.35 4.13,28.85 74.2,63.9 8.24,4.14 20.6,12.37 28.85,14.44 0,-16.48 -51.52,-152.56 -53.59,-171.09l166.95 -55.67 -88.62 -45.36c-12.37,-2.06 -55.66,16.48 -70.07,20.61l-105.12 35.05 0 0.01z"/>
 <path class="fil2" d="M1468.45 6051.84c0,-2.07 0,-4.13 0,-4.13l18.55 -84.52c0,-8.25 4.13,-16.48 4.13,-22.69 2.06,-8.25 0,-16.49 2.06,-24.73 2.06,-10.31 6.17,-28.86 10.31,-39.16l171.07 30.92c-4.11,-20.61 -22.67,-39.16 -35.04,-55.66 -16.48,-26.8 -14.44,-30.93 -51.52,-35.05 -26.79,-4.12 -131.91,-28.85 -148.39,-22.68 -2.06,26.8 -8.24,43.29 -10.31,70.09 -4.11,22.69 -24.73,94.83 -16.49,111.31 2.06,2.07 6.18,6.18 10.32,10.31l45.35 65.98 -0.03 -0.01z"/>
 <path class="fil2" d="M5332.83 6725.95c22.68,10.32 136.04,30.93 169.01,41.23 0,10.32 -4.14,32.99 -8.25,43.29l-30.93 129.87 84.51 -49.48c4.13,-6.18 10.31,-22.67 12.37,-32.98 4.11,-22.69 32.98,-134 30.92,-146.35 -18.54,-2.07 -49.46,-10.32 -70.07,-16.48 -10.31,-2.06 -96.86,-24.73 -107.16,-22.68l-53.59 32.99c-24.73,16.48 -22.69,10.31 -26.8,20.61l0 -0.02z"/>
 <path class="fil2" d="M5953.2 6282.72c28.85,4.14 162.83,0 166.94,2.07 16.48,2.07 4.13,-2.07 10.31,4.11 4.11,10.32 2.06,148.42 2.06,173.17 18.55,-8.24 47.4,-47.41 61.83,-61.84 10.32,-10.32 12.37,-8.25 12.37,-28.87 0,-53.6 -2.06,-105.14 -4.11,-158.72 -18.55,-6.18 -150.45,-2.07 -179.3,-2.07l-70.08 72.14 -0.01 0.02z"/>
 <path class="fil3" d="M1676.61 3736.84c24.73,-2.07 142.21,-43.31 183.43,-51.55 18.55,-4.11 43.29,-12.37 63.89,-18.55 20.62,-6.18 43.29,-10.31 63.9,-14.43 20.61,-6.18 41.22,-12.37 63.89,-18.55l228.77 -51.52c16.48,-4.14 20.61,-2.07 35.04,-6.18 10.32,-4.14 20.61,-4.14 32.98,-6.19 10.31,-2.06 20.61,-6.18 30.92,-8.24 14.44,-4.13 22.68,-2.06 35.04,-6.18 14.44,-4.13 22.68,-6.19 37.1,-6.19l204.04 -37.1c117.47,-20.61 237.02,-32.98 354.5,-51.52 92.74,-12.38 197.84,-16.48 290.58,-28.86 111.29,-14.43 511.13,-28.86 618.31,-28.86l129.82 0c101,0 206.11,8.25 309.14,8.25l74.21 6.18c47.4,4.11 103.03,0 152.51,8.24 20.61,4.11 53.59,2.07 76.25,6.18 49.46,6.18 98.93,8.25 150.45,12.37 86.55,6.18 352.42,41.23 424.57,55.67 78.31,14.43 160.75,24.72 239.07,41.23l525.55 115.44 189.62 51.53c10.31,2.06 18.55,6.18 30.9,8.24 10.32,4.11 18.55,6.18 28.87,10.32 12.37,4.13 22.67,4.13 35.04,8.24 4.11,-37.09 -41.22,-187.59 -53.59,-232.94 -10.32,-41.23 -26.8,-80.4 -39.17,-119.57l-35.04 -94.83c-65.95,-160.79 -150.45,-317.46 -249.37,-459.71 -8.25,-14.42 -14.44,-22.67 -24.73,-37.09 -10.31,-14.44 -18.54,-24.73 -28.85,-37.1 -16.48,-24.73 -37.09,-51.52 -55.65,-72.14 -115.43,-129.87 -133.96,-160.79 -286.48,-292.72l-24.73 -22.69c-4.11,-4.13 -4.11,-4.13 -8.23,-6.18 -24.73,-18.55 -47.42,-41.23 -72.14,-59.78 -115.43,-78.34 -177.24,-127.8 -311.21,-199.96l-127.79 -63.91c-57.71,-28.86 -121.6,-53.6 -183.43,-76.27 -8.25,-4.11 -12.37,-4.11 -22.67,-8.24 -43.29,-18.55 -177.24,-55.66 -226.73,-68.03 -140.14,-30.93 -191.66,-37.1 -331.82,-53.6 -20.62,-2.06 -37.1,-4.11 -57.7,-4.11l-117.48 -6.18c-212.28,-2.07 -387.46,16.48 -597.69,65.96 -113.36,24.72 -193.73,55.66 -294.72,90.69 -26.79,10.32 -63.9,24.73 -92.76,39.17 -12.37,6.18 -30.93,12.37 -43.29,18.55 -8.23,4.11 -12.37,6.18 -20.6,10.31 -8.25,4.11 -14.44,6.18 -22.67,10.31 -90.69,47.41 -179.31,92.77 -265.88,152.56l-57.7 39.17c-28.86,22.68 -47.4,35.04 -74.21,55.66 -12.36,8.25 -24.72,18.56 -37.09,26.8 -32.98,24.74 -109.21,88.64 -138.09,119.57 -123.66,129.86 -156.63,148.42 -274.11,305.08l-65.96 92.78c-47.4,65.96 -98.92,152.55 -133.96,222.63 -14.43,30.93 -28.86,57.73 -43.29,86.58 -37.09,72.14 -70.07,154.61 -94.79,228.82 -18.55,55.66 -39.17,113.37 -53.59,169.03l-18.55 80.4c-8.25,30.93 -12.37,80.39 -22.67,103.07l0.02 -0.05z"/>
 <path class="fil4" d="M3657.23 6004.43c-6.18,37.1 -18.55,443.22 -18.55,476.19 4.14,2.07 0,0 8.25,2.07l28.85 4.11c68.02,10.31 138.09,16.48 206.11,18.55 94.8,4.13 171.07,4.13 263.81,-4.11 30.91,-2.07 144.25,-8.25 160.75,-18.55 6.18,-4.14 4.12,-12.37 4.12,-24.75l0 -94.83c0,-22.67 -4.12,-30.93 -4.12,-51.52 0,-86.58 2.06,-237.08 -4.13,-307.16 -191.66,-4.13 -455.47,-6.18 -645.08,0l-0.01 -0.01z"/>
 <path class="fil4" d="M3972.59 5441.66l-288.56 2.06c-4.11,12.37 -16.48,311.28 -18.55,348.4 0,35.05 -10.31,76.27 -4.11,113.38l638.91 0c2.05,-160.79 0,-300.97 -4.14,-461.76 -14.42,-6.18 -204.03,-4.13 -243.19,-4.13 -28.85,0 -57.7,2.07 -80.38,2.07l0.01 -0.01z"/>
 <path class="fil4" d="M3560.38 5497.31l2.06 -51.54 -68.01 2.06c-72.13,2.07 -517.32,2.07 -542.04,14.44 -6.18,4.11 -6.18,32.98 -10.32,53.6l-22.67 175.23c0,12.36 -2.06,12.36 -4.13,24.72 -6.18,65.98 -18.55,146.38 -22.67,204.09 18.55,4.13 420.45,-8.25 480.22,-8.25 10.31,0 154.57,2.07 160.75,-6.18 8.25,-16.48 12.37,-166.96 14.44,-199.96l12.37 -208.2 0.01 0.02z"/>
 <path class="fil4" d="M4430.1 5905.48l636.87 12.37c-6.18,-76.26 -18.55,-154.61 -20.62,-232.94l-20.61 -216.46c-2.06,-14.44 2.06,-6.18 -4.11,-12.37 -14.43,-8.24 -535.86,-10.31 -605.94,-12.37 0,24.73 8.25,445.28 14.44,461.76l-0.03 0z"/>
 <path class="fil4" d="M3714.96 4942.77c-6.18,14.44 -12.37,125.76 -12.37,150.49 0,53.6 -8.25,105.14 -10.32,156.67l-4.11 103.07c45.36,4.14 166.95,2.07 214.35,2.07l391.59 0 -4.14 -414.36c-20.6,-4.11 -556.45,-4.11 -575,2.07l-0.01 0z"/>
 <path class="fil4" d="M3061.62 4953.08l-35.04 2.07c-8.25,20.62 -61.83,383.42 -63.9,416.42l608 -16.48 30.93 -414.35c-37.1,-4.11 -92.76,2.06 -131.9,4.13 -43.29,2.06 -90.69,0 -136.04,2.06 -65.96,0 -142.21,6.18 -206.11,4.13 -26.8,0 -45.36,2.06 -65.96,2.06l0.01 -0.02z"/>
 <path class="fil4" d="M5188.57 5919.91l329.76 14.44c16.48,-6.18 179.3,-173.15 197.86,-191.73l59.76 -70.08 -32.99 -191.73c-98.92,-6.18 -197.84,-6.18 -296.77,-12.37 -101,-4.11 -201.97,-6.18 -305.03,-8.25l47.4 459.71 -0.01 0.02z"/>
 <path class="fil4" d="M2179.49 5662.23l74.21 84.51c12.37,12.37 16.48,16.48 28.85,28.86 16.48,20.61 35.04,37.1 53.59,55.66 18.55,18.56 39.16,35.05 55.65,53.6 10.32,10.31 51.52,49.48 57.7,51.54 14.44,6.18 88.63,0 105.12,-2.06 41.22,-2.07 185.5,2.06 210.23,-8.25 8.23,-18.55 6.18,-35.05 8.23,-57.72 2.07,-14.44 8.25,-39.17 10.31,-53.6l47.42 -352.51 -358.63 14.43c-18.55,0 -28.87,4.12 -47.41,4.12 -28.86,0 -193.73,4.13 -204.04,10.31 -10.31,6.18 -32.98,142.24 -41.23,171.09l0 0.04z"/>
 <path class="fil4" d="M2554.6 4971.64c-20.61,0 -28.85,2.06 -49.46,4.12l-164.87 6.18c-10.31,20.61 -103.05,397.86 -101,420.54 26.8,-2.07 53.6,-4.13 82.45,-4.13 16.49,-2.06 30.93,-2.06 47.4,-2.06 16.48,0 24.73,-2.07 43.29,-4.13l305.03 -12.37c41.22,-4.11 86.55,-4.11 127.77,-4.11 12.37,-123.7 53.59,-296.86 68.01,-414.36l-230.83 6.18c-41.22,0 -84.5,4.13 -127.77,4.13l-0.02 0z"/>
 <path class="fil4" d="M4411.57 5355.07c47.4,2.07 105.12,2.07 152.52,2.07 63.89,-2.07 424.56,14.42 451.35,6.18 0,-30.93 -10.32,-63.91 -10.32,-96.9l-35.04 -313.36c-14.43,-8.23 -245.26,-8.23 -282.34,-8.23 -49.47,0 -92.77,-4.14 -144.28,-4.14 -39.14,0 -109.23,-4.11 -144.27,0l12.37 414.36 0 0.02z"/>
 <path class="fil4" d="M5132.91 5369.5c96.87,6.18 201.99,4.11 296.8,10.31l298.84 12.37c-6.18,-20.62 -8.25,-37.1 -10.31,-55.66l-51.53 -257.69c-4.11,-30.92 -14.42,-68.02 -22.67,-101.01 -43.28,-12.36 -197.86,-4.13 -272.05,-16.48l-290.59 -6.18 51.53 414.36 -0.02 -0.02z"/>
 <path class="fil4" d="M4438.37 6462.08c28.85,2.06 216.4,-49.47 261.73,-65.95l162.84 -59.8c94.79,-35.04 138.08,-63.9 226.7,-105.14 0,-35.05 -12.37,-197.91 -18.55,-214.39 -49.47,-4.13 -105.12,-4.13 -154.58,-4.13 -55.65,-2.06 -105.12,-6.18 -158.7,-6.18 -61.82,0 -284.41,-4.11 -327.7,0 0,37.09 2.07,76.27 2.07,115.44 0,35.05 -4.13,80.4 2.06,111.32 4.13,24.72 4.13,86.57 4.13,113.37 0,39.17 -2.07,78.34 0,115.45l0.01 0.02z"/>
 <path class="fil4" d="M3290.39 6008.55c-107.17,2.07 -214.34,8.25 -323.59,8.25 -125.72,0 -74.2,-14.43 -103.05,148.42 -4.11,16.48 -2.07,37.1 -6.18,51.52 14.43,16.49 123.66,68.03 146.34,78.34l158.69 63.91c47.4,16.48 90.68,35.05 142.2,49.47 32.99,10.32 183.45,53.6 201.98,47.41 6.18,-150.48 18.55,-300.96 22.69,-449.39 -84.5,0 -150.45,0 -239.07,2.06z"/>
 <path class="fil4" d="M3719.07 4860.32l566.77 0 -8.24 -364.88c-20.61,-4.11 -434.86,-2.05 -509.07,-2.05 -26.79,0 -24.72,-8.25 -28.85,74.21 -2.06,14.43 -4.13,28.85 -6.18,43.29 0,16.48 2.06,35.05 0,53.6 -4.13,26.79 -10.31,68.03 -10.31,92.76 0,37.1 -6.18,72.16 -4.11,103.08l-0.01 0z"/>
 <path class="fil4" d="M2470.11 4536.66c-16.48,24.73 -94.8,311.28 -111.3,366.95 70.08,2.05 144.27,-8.25 210.22,-10.32 82.45,-2.05 138.09,-8.23 216.41,-10.31 20.62,0 131.91,4.11 142.21,-6.18l74.2 -364.88c-20.61,0 -41.22,2.07 -63.89,2.07 -22.69,2.06 -45.35,0 -68.01,4.11 -43.29,4.11 -90.69,0 -136.04,4.11 -84.51,6.18 -175.19,8.25 -263.81,14.44l0.01 0.03z"/>
 <path class="fil4" d="M4961.86 4870.63c-8.25,-28.86 -8.25,-59.78 -14.43,-90.69 -2.06,-12.37 -4.13,-32.99 -6.18,-43.29 -2.06,-37.1 -24.72,-199.96 -32.98,-230.88 -61.84,-6.18 -375.1,-10.32 -459.61,-8.25 -22.67,0 -49.46,-4.11 -68.01,-2.07l10.31 224.71c0,41.23 4.11,76.27 4.11,117.51 0,35.04 -4.11,22.67 92.74,24.73 78.32,0 158.7,4.11 237.03,4.11 39.14,0 78.32,2.07 119.54,2.07 35.04,0 78.31,6.18 117.47,2.06l0.01 0z"/>
 <path class="fil4" d="M5069.02 4870.63l4.12 2.06c24.72,6.18 103.05,4.13 129.84,6.18 45.36,2.07 92.75,4.13 140.14,4.13 24.73,0 43.29,4.11 65.96,4.11 24.73,0 49.47,0 72.14,2.07 22.67,2.07 41.22,2.07 68.02,4.11 24.72,0 49.46,0 74.18,2.07 0,-35.05 -24.73,-107.19 -28.85,-140.18l-12.37 -45.36c-6.18,-30.93 -16.48,-61.84 -20.61,-92.76l-18.55 -63.91c-2.06,-4.13 -2.06,-8.24 -2.06,-10.31l-6.18 -12.37c-16.48,-12.37 -321.51,-12.37 -383.35,-18.55 -39.14,-4.13 -94.79,-2.06 -136.04,-2.06 0,28.86 8.25,63.9 12.37,94.83 4.11,28.86 10.32,55.66 14.44,86.57l26.78 179.35 0.02 0.02z"/>
 <path class="fil4" d="M1837.39 4577.89c-16.48,24.73 -78.32,181.41 -94.8,220.56 -10.31,20.62 -8.24,26.8 -2.06,47.41 6.18,22.7 22.67,78.34 32.97,94.83 78.32,0 160.77,-12.37 239.07,-16.48l177.24 -10.31c10.31,0 22.67,0 32.97,0 41.22,-2.06 28.85,-12.37 55.66,-98.93 10.31,-28.87 18.55,-59.78 26.78,-90.7 12.37,-39.17 55.66,-158.72 59.76,-181.41 -37.09,-4.11 -92.74,4.14 -129.83,6.18 -39.14,6.18 -94.8,6.18 -136.04,8.25l-261.73 20.61 0 -0.01z"/>
 <path class="fil4" d="M6200.51 4913.92c8.25,-14.44 26.79,-70.08 30.93,-88.64 14.43,-55.66 14.43,-43.29 -4.13,-94.83 -14.43,-32.99 -53.59,-156.67 -68.01,-177.28l-191.66 -12.37c-22.67,0 -41.22,-4.14 -63.89,-4.14 -45.35,-4.11 -86.55,-4.11 -131.9,-6.18 -39.17,-2.06 -88.63,-8.24 -125.73,-8.24 2.06,14.43 20.61,70.1 24.73,88.64 8.23,30.93 16.48,61.85 26.78,94.83 6.18,22.69 41.22,179.35 49.47,185.53 8.23,4.11 94.79,2.05 113.35,4.11 49.47,6.18 169.01,10.31 224.65,14.44 37.1,0 76.25,8.24 115.42,4.11l-0.01 0.03z"/>
 <path class="fil4" d="M3370.75 4120.26l-177.24 4.11c-12.36,35.06 -65.95,274.18 -72.13,315.42 76.25,-4.14 140.15,-2.07 216.41,-4.14l311.21 -8.24c2.05,-26.8 4.11,-51.53 6.18,-78.34l14.42 -115.45c2.07,-12.37 0,-26.8 2.07,-41.23 4.11,-22.67 12.37,-51.52 8.24,-78.34l-255.57 2.05c-39.14,0 -45.35,4.14 -53.59,4.14l0 0.03z"/>
 <path class="fil4" d="M4900.02 4435.65l-26.78 -160.79c-4.11,-30.93 -18.55,-133.99 -28.85,-154.61 -41.22,0 -74.21,-4.13 -113.36,-4.13 -41.22,0 -82.45,0 -123.67,0 -82.44,-2.06 -164.86,-6.18 -243.19,-6.18 -4.11,65.98 4.11,144.32 8.24,208.21 10.32,133.99 -28.85,105.14 103.04,109.25 140.15,2.06 284.42,8.24 424.56,8.24l0.01 0z"/>
 <path class="fil4" d="M2608.19 4149.14c-16.48,43.28 -113.35,286.53 -113.35,317.46 39.14,2.06 86.55,-6.19 127.77,-8.24 39.16,-2.07 96.86,2.05 131.9,-4.14 68.02,-12.37 193.74,-4.11 263.81,-8.23l39.17 -162.86c4.11,-14.44 39.14,-148.42 39.14,-156.68 -35.04,-2.06 -358.63,16.48 -422.49,20.62 -22.67,0 -43.28,0 -65.96,2.07l0.01 0z"/>
 <path class="fil4" d="M5001.01 4435.65l6.18 2.07c4.11,0 6.17,0 8.23,0l247.32 8.25c63.89,2.05 206.11,14.42 255.55,10.31 -2.06,-8.25 -8.24,-22.7 -10.31,-37.1l-86.55 -276.23c-39.14,-6.2 -76.25,-6.2 -119.54,-6.2 -41.22,0 -76.25,-4.11 -115.42,-4.11 -43.29,-2.06 -76.26,-6.18 -119.54,-6.18 -32.98,0 -96.86,2.07 -123.67,-4.11l20.62 117.49c2.05,10.32 6.18,26.8 8.23,39.17l28.87 156.68 0.03 -0.04z"/>
 <path class="fil4" d="M2754.52 3827.53c-24.72,43.31 -115.42,235.01 -119.53,263.87 80.38,-4.11 160.75,-8.25 239.07,-12.37 78.32,-2.06 158.7,-4.11 239.07,-8.24l84.51 -263.87c-51.52,-2.06 -78.32,4.13 -125.73,4.13 -37.09,0 -70.07,4.11 -107.16,4.11 -18.55,2.07 -35.04,0 -53.59,2.07l-156.63 10.31 -0.02 0z"/>
 <path class="fil4" d="M3815.93 3794.55c-8.24,14.44 -30.93,232.94 -28.85,259.76 152.51,-2.07 325.62,-4.14 476.09,-2.07 -2.07,-78.34 -2.07,-181.41 -8.25,-259.76 -63.89,0 -420.43,-6.18 -438.99,2.07z"/>
 <path class="fil4" d="M2228.97 3858.46l-125.72 195.84c-12.37,20.62 -32.98,51.53 -41.22,72.14 47.4,2.07 175.19,-12.37 234.96,-16.48 80.38,-4.11 160.75,-6.18 239.07,-14.42 8.23,-8.25 24.72,-49.48 32.97,-63.91l98.93 -197.91c-24.72,-4.11 -387.45,20.62 -439,24.75l0 -0.01z"/>
 <path class="fil4" d="M5400.86 4083.17c-6.18,-30.93 -41.22,-111.32 -53.59,-148.42 -8.25,-22.68 -18.55,-49.47 -28.86,-72.14 -4.11,-10.32 -10.32,-24.73 -14.43,-35.05 -8.24,-14.44 -18.54,-12.37 -41.22,-10.32 -63.9,0 -131.9,-4.13 -195.79,-6.18l-92.77 -4.13c-35.04,-2.06 -70.07,-2.06 -105.11,-2.06 0,16.49 6.18,28.85 8.24,41.22l47.4 204.09c8.25,26.8 10.31,16.48 84.5,18.55l391.6 14.44 0.01 0z"/>
 <path class="fil4" d="M5499.78 4081.1c41.22,2.05 439,20.61 463.73,28.85 0,-20.62 -129.85,-243.25 -146.34,-265.92l-208.16 -16.48c-39.16,-2.06 -72.13,-4.12 -109.23,-6.18 -37.1,-2.07 -70.07,-6.18 -105.11,-4.12 -2.07,8.25 65.96,160.79 80.38,195.85 8.25,22.67 18.55,43.28 24.73,68.02l0 -0.02z"/>
 <path class="fil4" d="M1802.35 5016.99c-2.07,32.98 113.36,251.5 142.21,303.03l61.82 94.83 101 -6.18c24.73,-2.07 18.55,-32.98 37.09,-107.19l80.38 -311.28c-30.93,2.07 -72.14,0 -103.06,6.18 -24.72,4.11 -78.31,6.18 -105.11,6.18l-214.34 14.44z"/>
 <path class="fil4" d="M5850.15 5386l129.83 6.18c10.31,-14.44 20.6,-35.04 26.78,-47.41 10.32,-14.43 16.48,-28.85 26.8,-45.36 35.04,-65.95 123.66,-241.17 140.14,-307.15l-305.03 -18.56c-26.79,-4.11 -72.14,-4.11 -103.03,-4.11l14.42 74.21c12.37,47.42 30.93,144.32 45.35,208.21l24.73 133.99 0.01 -0.01z"/>
 <path class="fil4" d="M3820.07 3743.03c63.89,2.05 414.25,2.05 432.81,-2.07l-12.37 -204.09c-20.62,-2.05 -379.22,-2.05 -385.43,2.07 -12.36,6.18 -32.97,187.59 -35.04,204.09l0.02 0z"/>
 <path class="fil4" d="M3302.76 3753.33l428.7 -8.25 41.22 -208.2c-129.83,2.07 -249.38,2.07 -375.1,10.31 -20.62,2.06 -20.62,0 -37.1,47.42 -18.55,47.41 -47.4,107.19 -57.7,158.72l-0.01 0z"/>
 <path class="fil4" d="M4341.5 3743.03c68,2.05 142.2,4.11 210.22,4.11 65.96,0 154.57,-2.07 216.41,6.18 -2.07,-22.67 -43.29,-169.04 -53.6,-193.77 -55.65,-8.24 -127.77,-12.37 -187.54,-16.48 -43.29,-2.05 -35.04,-4.11 -98.93,-6.18 -35.04,0 -72.14,2.07 -107.17,0 0,35.05 4.13,72.16 10.31,107.19 4.12,30.93 -2.06,74.22 10.32,98.96l-0.01 -0.01z"/>
 <path class="fil4" d="M2783.37 3773.94l430.75 -16.48c8.25,-14.43 30.93,-76.27 41.23,-101.01l43.28 -101.01c-18.55,0 -70.07,2.06 -86.56,6.18 -22.67,4.11 -57.72,8.24 -82.43,8.24l-162.84 20.61c-20.61,2.07 -57.72,4.14 -76.25,10.31 -16.48,8.25 -63.9,96.88 -72.14,111.32 -12.36,18.56 -28.86,43.31 -35.05,61.84l0.01 0z"/>
 <path class="fil4" d="M4854.7 3751.26l422.49 18.55c-6.18,-18.55 -61.82,-146.38 -78.32,-152.56l-191.66 -26.79c-14.44,0 -37.1,-4.11 -53.6,-6.18 -28.85,-6.18 -53.59,-2.06 -98.92,-12.37 -16.48,-4.11 -41.22,-2.07 -59.76,-4.11 4.11,28.85 22.67,63.9 30.93,92.76 4.11,18.55 20.61,82.47 28.85,90.7l-0.01 0z"/>
 <path class="fil4" d="M1641.58 4219.2c-8.23,55.67 18.55,235.01 24.73,298.92 18.55,6.18 78.32,-2.06 101,-4.11l119.53 -239.14c12.37,-20.61 39.17,-63.9 43.29,-80.39 -24.73,2.06 -47.4,4.11 -74.18,6.18 -41.22,0 -181.37,10.31 -214.36,18.54l-0.01 0z"/>
 <path class="fil4" d="M2268.15 3811.05l426.62 -30.93 107.16 -166.96 -309.14 51.52c-39.14,6.18 -127.79,16.48 -146.33,39.17 -14.43,18.55 -72.13,88.63 -78.31,107.19z"/>
 <path class="fil4" d="M6231.44 4489.25l70.07 8.25c8.25,-24.73 28.85,-278.31 24.73,-307.16 -41.22,0 -78.32,-6.18 -115.43,-10.31 -18.54,-4.11 -43.28,0 -63.89,-2.07 -20.61,-2.05 -37.09,-4.11 -59.75,-6.18l109.23 237.08c12.37,26.79 22.67,59.78 35.04,80.39z"/>
 <path class="fil4" d="M5367.87 3769.82c88.62,-2.07 218.48,12.37 313.28,14.44l103.05 10.31c-2.06,-10.31 -22.69,-37.1 -28.86,-47.41 -18.55,-26.79 -10.31,-26.79 -47.4,-35.05l-267.94 -53.6c-35.04,-6.18 -115.42,-22.67 -142.21,-24.73 8.25,22.7 22.67,43.31 35.04,68.03 12.37,22.69 24.73,47.41 35.04,68.02l0.01 -0.02z"/>
 <path class="fil4" d="M1757 3852.27l315.33 -26.79c32.98,-2.07 74.2,-10.32 109.23,-8.25l82.44 -105.14c-35.04,2.06 -92.74,22.69 -131.9,28.86 -72.14,14.43 -187.54,49.48 -257.62,65.96l-61.84 18.56c-20.61,4.11 -45.35,8.23 -55.65,26.79z"/>
 <path class="fil4" d="M5209.19 6159.04c22.67,-4.13 146.33,-94.83 168.99,-111.31 4.13,-4.11 6.18,-6.18 12.37,-10.31 10.31,-8.25 2.06,4.11 10.31,-10.32l-201.99 -10.31c-2.05,45.35 6.18,94.83 10.32,142.24l0 0.01z"/>
 <path class="fil5" d="M2573.16 6033.28c2.06,6.18 4.12,8.25 16.49,14.44 8.24,6.18 12.37,10.31 20.6,16.48 18.55,12.37 113.36,80.39 129.85,86.57 4.11,-45.35 12.37,-78.34 12.37,-123.69 -86.55,0 -96.87,-2.06 -179.31,6.18l0 0.01z"/>
 <path class="fil6" d="M4207.51 1479.54c94.8,0 162.84,-41.23 206.11,-90.69 47.4,-49.48 84.51,-142.25 86.55,-212.35 2.07,-88.64 -10.31,-158.72 -70.07,-224.69 -43.28,-47.41 -121.59,-84.52 -214.34,-84.52 -65.96,0 -144.27,24.73 -189.61,65.96 -35.04,32.98 -61.83,68.03 -78.31,113.38 -16.48,43.31 -22.7,74.21 -24.73,123.69 -4.11,131.94 65.96,261.8 189.61,292.73 32.98,8.25 51.52,16.48 94.79,16.48zm-35.04 -579.27c-18.55,6.18 -24.72,6.18 -43.28,16.49 -59.76,32.98 -80.39,78.34 -101,138.1 -24.73,68.03 -12.37,187.6 6.18,257.69 12.37,49.48 57.72,107.19 111.3,127.81 8.23,4.11 37.08,10.31 47.4,10.31 18.55,4.11 37.08,2.06 53.59,-2.07 138.08,-32.98 166.94,-185.52 160.75,-315.39 -2.07,-76.27 -16.48,-131.93 -55.65,-179.35 -35.04,-43.28 -107.17,-74.21 -179.31,-53.6l0.01 0z"/>
 <path class="fil6" d="M5223.6 1728.96c0,14.44 -10.31,0 20.62,18.56 10.31,6.18 18.54,10.32 28.85,16.48 76.25,45.36 68.01,47.41 121.59,82.47 8.23,6.18 16.48,14.43 24.72,20.61 6.18,-14.43 -4.13,-20.61 -12.36,-28.86 -59.76,-72.14 -51.53,-53.6 45.35,-204.09 24.73,-39.16 49.46,-76.26 74.2,-113.38 12.37,-20.61 20.61,-32.98 37.09,-55.66 8.24,-12.37 28.86,-51.53 41.23,-53.6 6.18,12.38 10.31,136.06 10.31,158.72 0,49.46 8.24,109.26 8.24,158.72 2.06,28.86 2.06,53.6 4.13,80.4l8.24 166.99c0,57.72 -8.24,59.78 16.48,70.08l296.77 -432.91c24.73,-35.04 35.04,-26.79 80.38,-14.42 16.48,4.11 30.91,10.31 41.22,0 -2.06,-12.38 -28.86,-20.62 -49.46,-33l-98.94 -65.95c-10.31,-6.18 -39.14,-35.06 -49.45,-35.06 -2.07,16.49 20.6,41.23 26.78,51.55 14.44,22.67 26.8,35.05 16.49,59.78 -14.43,30.93 -136.04,212.32 -166.95,257.69 -8.23,12.36 -22.67,45.35 -37.09,47.41 -6.17,-12.37 -4.13,-107.19 -8.24,-131.94 -2.07,-20.62 0,-45.36 -2.07,-65.96 -4.11,-22.7 -4.11,-47.41 -4.11,-70.11 -2.07,-57.72 -20.62,-226.77 -8.25,-274.18 -53.58,-26.79 -80.38,-39.16 -123.65,-78.34 -8.25,-8.24 -8.25,-10.31 -20.61,-12.38 6.18,37.1 72.13,68.03 45.35,113.39l-70.07 105.15c-20.61,32.98 -181.37,267.98 -197.86,274.18 -28.85,10.31 -78.32,-20.61 -98.93,-12.37l0.01 0.02z"/>
 <path class="fil6" d="M6140.76 2491.71c2.06,14.44 4.11,8.25 14.42,24.75 6.18,6.18 10.31,14.43 16.48,22.68 12.37,14.43 24.73,32.98 35.04,49.47l47.4 94.83c8.25,18.55 2.07,8.25 14.44,12.37 2.05,-30.93 -12.37,-49.47 -14.44,-78.34 -4.11,-30.93 18.55,-39.17 37.1,-51.54 35.04,-22.67 74.18,-47.41 109.21,-70.08l111.3 -68.03c14.42,-10.31 101,-63.9 113.36,-63.9 -2.07,12.37 -76.25,191.73 -86.56,218.51l-90.67 220.56c-6.18,20.62 -20.61,51.52 -30.93,72.14 -4.13,12.38 -8.24,22.69 -14.43,35.05 -6.18,14.44 -14.43,24.75 -16.49,37.1l10.32 12.37c12.37,-4.14 24.72,-14.44 37.09,-20.62 80.39,-49.48 152.51,-98.93 243.2,-148.42 20.61,-10.31 49.47,-26.8 70.08,-39.16 14.43,-6.18 24.73,-12.37 37.09,-20.62 6.18,-4.13 8.24,-4.13 16.48,-8.25l61.82 -32.98c30.93,-16.48 45.35,8.25 82.44,39.16 10.31,8.25 6.18,8.25 22.69,4.11 0,-10.31 -51.52,-80.39 -61.83,-96.87 -4.11,-8.25 -10.31,-16.48 -16.48,-24.73 -4.14,-10.31 -10.32,-20.61 -14.44,-28.86l-20.6 -39.17c-8.25,-16.48 4.11,-8.24 -12.37,-12.38 0,72.16 32.97,88.65 -14.44,123.7 -35.04,26.79 -282.34,181.4 -305.03,185.53 4.11,-18.56 18.55,-49.48 24.73,-65.99 10.31,-22.67 18.55,-43.28 26.79,-63.9l127.78 -313.35c51.52,-103.07 30.92,-18.55 -47.4,-185.53 -8.25,-16.48 -6.18,-14.44 -14.44,-16.48 -6.17,18.55 18.55,70.1 12.37,94.83 -4.11,16.48 -14.42,22.69 -26.78,28.86l-368.92 214.39c-43.29,22.69 -41.22,4.13 -76.26,-20.62 -10.32,-6.18 -10.32,-6.18 -16.49,-12.36 -10.31,-8.25 -8.24,-10.32 -22.67,-8.25l0.03 0.04z"/>
 <path class="fil6" d="M841.92 3186.42c16.48,-2.06 16.48,-6.18 24.72,-14.44 41.22,-53.6 39.17,-72.13 115.43,-51.52l45.35 12.37c30.93,8.25 57.73,14.44 90.69,24.75 28.85,10.31 59.75,18.55 88.62,24.73l76.25 22.69c8.24,4.11 4.13,0 8.24,8.24l-439 166.99c-98.92,28.85 -59.76,4.11 -86.55,105.14 -4.11,22.7 -24.73,55.67 -28.85,78.34 16.48,-4.11 41.22,-43.29 51.52,-57.72 24.73,-35.05 59.76,-14.44 121.59,2.06l127.77 39.17c6.18,2.05 14.44,2.05 22.7,4.11 6.18,4.13 10.31,6.18 18.54,8.25 8.24,2.06 12.37,2.06 20.61,6.17l41.22 12.37c8.24,2.07 12.37,2.07 20.61,6.18 26.79,10.32 109.24,32.99 117.47,47.41 12.37,18.56 6.18,74.22 16.48,94.83 6.18,-4.11 6.18,0 10.32,-24.72 8.23,-37.1 10.31,-55.67 22.67,-92.77 6.18,-22.69 35.04,-101.01 37.1,-113.39 -30.93,6.19 -43.29,90.7 -88.63,78.34l-267.95 -72.13c-12.37,-4.14 -22.67,-6.2 -35.04,-8.25 -4.11,-2.07 -8.23,-4.13 -14.42,-6.18 -24.73,-6.18 -55.66,-12.38 -84.51,-24.75 6.18,-12.37 6.18,-6.18 32.97,-18.55 14.44,-4.11 24.73,-8.24 39.17,-14.43 20.6,-8.25 51.52,-18.55 74.18,-26.8 6.18,-4.11 10.31,-4.11 16.48,-6.18 8.25,-4.11 10.31,-4.11 18.55,-8.25l282.35 -107.19c12.37,-4.11 10.31,-2.05 20.61,-6.17 10.32,-4.12 10.32,-4.12 20.61,-6.18l59.75 -20.62c16.48,-6.18 24.73,-8.25 26.8,-30.93 -16.48,0 -61.84,-16.48 -80.39,-18.56 -47.4,-12.37 -109.23,-32.98 -156.63,-43.29l-224.64 -74.21c-94.8,-30.93 -72.14,-16.48 -80.39,-119.55 -26.78,-6.19 -14.42,0 -30.9,76.26 -14.44,55.67 -32.99,96.9 -51.52,148.42l0.02 -0.03z"/>
 <path class="fil6" d="M4201.34 7181.53c4.14,-8.25 0,-4.11 8.25,-10.32 6.18,-6.18 8.25,-6.18 16.48,-8.24 -2.06,16.48 2.07,10.31 -8.23,18.55 -2.07,22.69 -22.7,53.6 -32.99,70.1 -16.48,24.73 -32.97,41.23 -51.52,59.78 -28.85,28.86 -80.38,72.14 -121.59,92.76l2.07 18.55c20.6,2.07 123.66,-63.9 140.14,-76.26 45.35,-30.93 80.38,-65.98 109.23,-113.39 84.51,-142.23 35.04,-344.25 -127.79,-346.32 -28.85,0 -68.01,8.25 -90.69,20.62 -88.62,43.28 -131.89,169.03 -55.63,251.5 32.97,35.04 70.07,45.35 123.66,45.35 72.13,0 63.89,-16.48 88.61,-22.69l0 0.01zm-179.3 -148.42c0,51.52 16.48,119.54 65.96,138.1 86.55,35.05 146.34,-26.79 146.34,-94.83 0,-47.41 -4.13,-76.27 -28.85,-117.51 -45.35,-80.4 -183.45,-63.9 -183.45,74.21l0 0.03z"/>
 <path class="fil6" d="M3797.4 7167.09c0,20.62 -22.68,59.78 -32.99,76.27 -24.73,39.17 -74.18,88.64 -111.29,115.45 -18.55,12.37 -45.35,35.05 -68.01,45.35l2.06 16.48c24.73,4.12 123.66,-61.84 144.28,-76.27 234.96,-162.85 162.83,-478.26 -43.29,-455.57 -187.54,20.6 -218.46,249.43 -70.07,305.08 30.93,10.32 72.14,12.38 105.11,8.25 35.04,-4.11 59.76,-35.05 74.21,-35.05l0 0.01zm10.3 -105.14c0,-191.73 -210.22,-199.97 -210.22,-32.99 0,204.08 210.22,197.89 210.22,32.99z"/>
 <path class="fil6" d="M2900.87 1061.06c14.42,8.25 30.92,-2.05 59.75,-2.05 45.36,0 53.59,32.98 78.32,94.83 4.11,14.42 10.31,26.8 14.42,39.16l65.96 164.92c26.8,63.9 37.1,127.8 -2.05,181.4 -28.87,41.23 -96.87,72.16 -166.95,72.16 -92.76,0 -123.67,-96.9 -150.45,-160.79l-82.44 -224.7c-14.44,-43.31 -8.25,-47.41 14.42,-72.14 18.55,-16.48 49.47,-37.1 51.52,-49.48 -12.34,-6.18 -47.39,14.44 -59.75,20.62l-96.86 41.23c-30.92,8.24 -96.86,26.8 -103.05,35.05 12.37,10.32 49.47,6.18 68.01,6.18 30.91,0 41.22,20.62 51.53,43.29 35.04,74.21 103.05,296.85 144.27,350.44 101,134 323.59,37.1 373.03,-51.52 30.93,-55.67 26.8,-117.52 10.32,-175.23 -30.93,-105.14 -92.77,-237.07 -113.36,-309.22 -12.37,-51.54 55.63,-59.78 49.45,-90.7 -20.6,6.18 -98.92,51.53 -181.36,72.14 -30.92,8.25 -20.61,2.07 -24.72,14.44l-0.02 -0.03z"/>
 <path class="fil6" d="M7031.11 2926.69c0,82.46 10.31,78.34 -43.29,98.93 -14.42,4.11 -24.73,8.24 -37.1,12.37 -78.3,28.86 -193.73,59.78 -274.11,88.64 -24.73,8.24 -53.59,18.55 -78.32,24.72 -6.18,2.07 -32.97,8.25 -39.14,6.2 -16.48,-4.14 -39.16,-39.18 -49.46,-53.62 -12.37,-16.48 -10.32,-22.67 -28.85,-22.67 4.11,16.48 14.43,35.05 20.61,51.52 4.11,20.62 14.43,35.06 20.61,55.67 12.37,37.1 24.72,74.22 39.16,113.38l35.04 115.45c6.18,24.72 26.78,103.08 32.97,119.55 24.73,-12.37 96.87,-30.93 125.73,-39.17 14.43,-4.11 10.31,0 14.43,-8.25 -14.43,-8.23 -78.31,0 -100.99,-8.23 -18.55,-6.19 -18.55,-14.44 -24.73,-28.86 -10.31,-24.73 -65.96,-191.73 -61.84,-212.35l113.36 -41.23c22.67,-8.23 105.12,-37.1 121.59,-35.04l47.4 150.48c16.48,63.9 20.61,51.54 -24.73,88.64 -12.36,10.31 -30.92,16.48 -32.97,32.98 14.43,2.07 123.66,-39.16 154.58,-47.41 10.31,-4.11 14.42,-4.11 24.72,-8.23 4.12,-2.07 8.24,-2.07 12.37,-4.14 10.32,-4.11 8.24,0 10.32,-10.31l-59.76 -6.18c-20.62,0 -30.93,0 -43.29,-33l-57.7 -177.28c28.85,-8.24 185.5,-63.9 212.28,-61.84l65.96 206.14c10.31,32.98 -2.07,37.1 -24.73,51.54l-30.93 24.73c-8.23,6.18 -12.34,6.18 -12.34,20.62 20.6,-6.18 41.22,-14.44 59.75,-22.7 20.61,-8.23 47.4,-10.31 65.94,-16.48 0,-18.55 -80.38,-232.94 -92.74,-276.24l-41.22 -142.24c-2.07,-12.37 -2.07,-24.72 -10.31,-28.86 -10.32,6.18 -8.25,6.18 -8.25,22.7l-0.02 0.08z"/>
 <path class="fil6" d="M4343.55 7255.73l2.07 16.48 228.77 0c22.67,0 14.43,14.44 14.43,80.4 0,39.16 -28.86,39.16 -57.72,49.46 -32.97,8.25 -20.6,4.14 -24.73,14.44l218.48 0c-6.18,-12.37 2.06,-2.05 -6.18,-8.23 -8.24,-6.2 -55.65,-12.38 -63.9,-30.93 -4.11,-10.32 -2.05,-61.85 -2.05,-78.34 0,-47.41 8.23,-22.7 101,-26.8l0 -32.98 -98.94 0c-10.31,-43.31 6.18,-280.35 -2.05,-348.4l-39.17 0c-53.58,63.9 -84.5,94.83 -140.14,173.17l-100.99 138.11c-26.8,39.16 -28.87,24.73 -28.87,53.6l-0.01 0.02zm55.66 -30.92c-4.11,16.49 -2.06,4.12 2.06,8.24l185.5 0 -2.07 -259.73c-8.23,0 -41.22,45.35 -49.47,57.72 -16.48,20.62 -30.9,39.18 -47.39,61.85 -16.49,22.69 -28.85,41.23 -45.36,63.9 -6.18,10.31 -41.22,55.67 -43.28,68.02l0.01 0z"/>
 <path class="fil6" d="M1474.65 2745.28c84.51,0 136.04,96.88 74.2,199.97 -8.24,16.48 -43.28,57.72 -55.65,61.84 -16.48,6.18 -109.21,-28.86 -125.73,-20.61 6.18,16.48 45.36,35.05 57.73,45.35l68 43.31c18.55,-28.86 37.1,-24.75 82.44,-107.19 37.1,-70.1 68.01,-185.53 6.18,-255.62 -55.65,-61.85 -131.9,-72.16 -204.03,-26.8 -57.73,37.1 -117.48,98.94 -173.13,115.44 -74.2,20.61 -150.45,-61.84 -115.42,-148.42 6.18,-16.48 18.55,-32.99 26.78,-47.41 8.25,-10.32 6.18,-8.24 16.48,-18.55 8.24,-8.25 12.37,-10.31 18.55,-20.62 16.48,0 98.92,18.55 109.21,14.44 0,-14.44 -10.31,-12.37 -22.67,-18.55 -18.55,-12.37 -68.01,-43.31 -82.44,-47.41 -90.68,59.78 -183.42,257.69 -51.52,350.44 98.93,68.03 197.87,-24.72 276.18,-80.39 26.8,-18.55 57.73,-39.17 94.8,-39.17l0.01 -0.02z"/>
 <path class="fil6" d="M5796.54 2122.71l-10.31 0 2.06 12.37c10.32,0 22.68,16.48 30.93,24.73 10.32,10.31 20.61,18.56 32.98,30.93 10.31,4.11 4.11,2.07 12.37,8.25 6.17,8.23 2.06,2.05 10.31,12.36l72.14 84.52c16.48,18.56 18.54,24.75 30.92,26.8 0,-24.73 -30.92,-65.96 -35.04,-84.52 -2.06,-20.62 8.25,-30.93 18.55,-43.31l144.28 -136.06c6.18,-6.18 -2.07,0 8.23,-8.24 12.37,6.18 84.51,86.58 101,107.19 45.35,49.47 43.28,39.17 4.11,113.38 0,0 -4.11,8.25 -4.11,8.25 -2.07,16.48 -4.13,-16.48 0,6.18 4.11,14.43 32.97,-20.62 41.22,-28.86 12.37,-12.37 24.73,-24.73 39.14,-37.1 26.8,-30.93 35.04,-35.05 59.76,-57.72 8.24,-8.25 14.43,-8.25 14.43,-22.7 -18.54,0 -51.52,22.7 -70.08,26.81 -28.85,8.23 -84.49,-59.79 -109.21,-86.59 -16.48,-14.43 -43.28,-37.1 -47.4,-59.78 10.32,-4.11 90.68,-84.52 115.43,-103.08 20.61,-18.54 28.85,-30.92 43.28,-35.04l111.29 117.5c6.18,6.18 8.25,10.31 12.37,14.43 8.25,8.25 8.25,8.25 16.48,14.44 8.24,12.37 12.37,22.69 8.24,39.16 -4.11,10.32 -14.43,24.75 -20.61,37.1 -8.24,16.48 -18.54,24.73 -12.37,41.23 8.24,-4.13 41.22,-41.23 51.53,-49.48 16.48,-14.43 32.98,-32.98 51.52,-47.41l-199.9 -199.96c-12.37,-14.44 -22.67,-28.86 -35.04,-43.31 -32.98,-30.93 -43.29,-49.48 -65.96,-74.22 -8.24,-10.31 -4.11,-6.18 -16.48,-10.31 0,22.67 30.91,72.14 35.04,86.57 4.11,22.67 -30.93,49.47 -49.47,68.03 -24.72,22.67 -39.14,39.16 -59.75,57.72l-181.37 173.15c-65.96,61.85 -63.89,63.9 -113.36,35.05 -10.31,-6.18 -26.78,-12.37 -37.1,-18.55l-0.02 0.08z"/>
 <path class="fil6" d="M3288.32 939.44c0,28.86 14.44,115.45 22.67,150.49 8.25,-2.07 4.14,2.06 12.37,-22.7 22.67,-84.51 -4.11,-90.69 131.91,-107.19 14.43,-2.05 18.55,-6.18 35.04,-6.18 4.13,10.32 16.48,94.83 18.55,109.26 4.11,41.23 12.37,80.4 16.48,121.63l24.73 169.03c14.43,84.52 8.24,94.83 -57.71,127.81 -14.43,8.24 -22.67,6.18 -24.72,20.61l261.73 -32.98c14.44,-2.07 12.37,2.05 14.44,-12.37 -6.18,-2.07 0,-2.07 -8.25,-2.07 -24.73,-4.11 -78.32,-12.37 -90.69,-28.86 -16.48,-18.55 -16.48,-53.6 -20.6,-68.02 -2.07,-8.24 -4.11,-28.86 -6.18,-37.1 -6.18,-65.96 -26.8,-173.17 -30.93,-226.77 -2.07,-28.85 -22.67,-134 -20.61,-152.56l115.42 -12.37c51.52,0 53.59,37.1 80.38,82.47 8.24,12.36 0,6.18 14.43,10.31 4.13,-12.37 -6.18,-59.78 -8.24,-74.22l-10.31 -76.27 -230.83 37.1c-41.22,8.24 -226.7,24.72 -239.07,30.93l0.02 0.01z"/>
 <path class="fil6" d="M1245.88 2328.86c8.23,12.38 115.42,92.77 119.54,94.83 14.42,-26.8 -59.76,-70.08 -37.1,-119.55 8.23,-18.55 22.67,-37.1 35.04,-53.6 6.18,-8.25 12.37,-16.48 18.55,-24.73 8.24,-10.31 10.31,-18.56 22.67,-24.74l288.56 224.7c18.55,14.43 39.14,28.86 57.7,45.35 47.4,39.17 37.1,45.37 20.61,101.01 -2.06,12.37 -2.06,10.32 -6.18,20.62 -4.13,10.31 -6.17,6.18 -2.06,18.56 12.37,-2.07 6.18,4.11 24.72,-26.81 35.04,-55.65 86.56,-121.61 129.83,-166.97 6.18,-6.18 20.62,-16.48 20.62,-26.79 -14.44,-4.11 -39.17,20.61 -65.96,32.98 -35.04,18.56 -49.47,8.25 -84.51,-20.61l-88.62 -68.03c-4.11,-2.05 -8.24,-8.23 -14.43,-12.37 -65.96,-51.52 -171.07,-127.8 -232.91,-181.4 2.07,-14.44 61.84,-82.46 72.14,-92.77 18.55,-16.48 32.98,-24.72 61.83,-12.37 12.37,6.18 20.61,6.18 32.98,10.32 10.31,4.13 24.72,8.24 35.04,8.24 0,-16.48 6.18,-4.11 -22.67,-28.86l-61.83 -45.35c-10.31,-8.25 -20.61,-18.55 -32.98,-24.73 -12.37,10.32 -115.42,158.73 -140.15,189.65 -12.35,16.49 -24.73,28.85 -35.04,45.36 -6.18,8.24 -12.37,14.43 -18.55,22.67 -8.24,8.25 -14.43,14.43 -20.61,22.69l-76.24 92.77 0.03 -0.07z"/>
 <path class="fil6" d="M1969.27 1553.75c4.11,14.43 57.7,88.64 74.18,113.38 6.18,10.31 4.14,10.31 14.44,10.31 4.11,-39.16 -37.1,-94.83 4.11,-127.8 8.25,-6.18 4.11,-2.07 10.32,-10.32 6.17,-4.11 6.17,-4.11 12.36,-8.23 24.73,-16.48 49.47,-37.1 76.27,-49.48l243.19 364.88c26.78,45.35 26.78,53.6 -12.37,105.14 -8.25,10.32 -18.55,18.56 -20.61,35.05 16.48,-2.06 43.28,-30.93 57.72,-41.23 65.96,-45.35 90.68,-61.84 160.75,-101.01l16.49 -12.37c-8.24,-6.18 -10.32,-4.11 -18.55,-2.06 -121.59,26.79 -82.44,22.69 -204.04,-148.42l-59.76 -90.7c-16.48,-22.7 -96.85,-140.18 -98.92,-154.61l12.37 -8.25c6.18,-4.11 6.18,-4.11 12.37,-8.25 26.78,-16.48 49.45,-35.05 78.31,-47.41 51.52,-20.61 82.44,47.41 119.54,49.48 -4.13,-22.69 -68.02,-111.31 -82.45,-129.87 -10.31,2.07 -92.74,65.96 -117.47,82.46 -82.44,55.67 -144.27,94.83 -226.7,146.35 -16.48,10.32 -35.04,18.55 -51.52,32.99l-0.03 0z"/>
 <path class="fil6" d="M7078.49 3561.6c4.11,10.31 -6.18,4.11 24.73,14.44 12.37,2.05 18.55,2.05 32.97,6.17 2.07,0 10.32,4.12 14.44,4.12 18.55,6.18 24.73,4.11 35.04,24.72 10.31,20.62 10.31,41.23 14.44,63.9 2.05,12.37 10.31,57.73 8.23,70.09 -35.04,8.24 -61.82,6.19 -82.44,8.24 -8.23,2.07 -14.42,4.14 -26.78,6.18l-220.54 24.75c-45.35,2.06 -70.07,10.31 -136.04,12.37l-20.6 0c-12.37,-16.48 -20.62,-24.75 -30.93,-43.31 -4.11,-8.25 -6.18,-14.44 -12.37,-24.73 -10.31,-22.69 -6.18,-16.48 -16.48,-20.61l18.55 131.94c4.11,20.61 10.31,140.18 12.37,144.32 12.34,-4.11 10.31,-10.32 12.34,-24.73 10.32,-47.41 14.44,-72.16 49.47,-82.46 49.47,-12.37 55.66,-6.18 74.2,-10.31l307.09 -39.17c10.31,-2.05 76.26,-6.18 80.38,-4.11 0,0 2.07,2.07 2.07,2.07l2.05 10.31c0,4.11 0,6.18 0,12.37 2.07,6.18 4.14,14.44 4.14,24.75 6.18,88.63 12.37,98.93 -47.4,125.76 -14.44,6.18 -43.29,20.62 -47.41,28.86 10.31,6.18 129.85,-12.38 156.63,-12.38 -2.05,-16.48 -6.18,-37.1 -8.23,-57.72 -2.07,-18.55 -8.25,-37.1 -10.32,-55.67 -4.11,-39.16 -10.31,-76.26 -16.48,-115.45 -10.31,-82.45 -14.42,-162.85 -20.6,-245.3 -10.32,0 -142.21,14.43 -152.52,20.61l0.05 -0.02z"/>
 <path class="fil6" d="M4910.32 1609.42c4.12,12.36 32.98,16.48 61.83,26.79l129.85 55.67c18.55,8.24 45.35,28.86 63.89,28.86 -2.07,-18.56 -30.93,-35.05 -49.47,-51.55 -26.78,-24.72 -18.55,-35.05 -4.11,-72.13 39.14,-103.08 74.2,-181.41 117.47,-280.35 8.25,-22.67 49.47,-125.76 65.96,-131.94 16.48,0 32.98,0 49.46,0 18.55,2.07 35.04,10.31 45.36,0 -6.18,-10.31 -47.4,-20.62 -63.89,-26.8 -10.32,-4.11 -18.55,-6.18 -30.93,-10.31l-111.29 -49.47c-6.18,-4.13 -6.18,-4.13 -14.44,-8.24 -10.31,-4.11 -18.55,-12.37 -32.97,-14.44 2.06,16.48 16.48,24.73 24.73,32.99 35.04,28.86 47.4,28.86 37.08,68.02l-80.38 202.02c-12.37,28.87 -90.69,220.58 -109.24,230.89 -18.54,10.31 -84.5,-8.25 -98.92,0l0 -0.01z"/>
 <path class="fil6" d="M701.78 4006.89c10.31,-4.13 32.97,-63.9 43.27,-84.51 68.02,-8.25 309.15,12.37 387.48,24.75 125.73,16.48 107.17,-14.44 136.04,92.76l10.32 16.48 4.11 -14.43c0,-12.37 -2.06,-32.99 0,-55.66 4.13,-22.69 4.13,-47.41 6.18,-70.1l16.48 -123.7c0,-6.18 2.05,-4.11 -2.07,-8.23 -12.37,4.11 -4.11,-4.14 -20.61,30.93 -18.55,43.31 -20.61,70.1 -84.5,55.66 -22.69,-4.13 -65.96,-2.06 -92.76,-4.13 -32.98,-4.11 -65.96,-8.24 -96.87,-8.24 -26.78,0 -154.57,-20.61 -183.42,-20.61 -16.49,0 -26.8,0 -43.29,-4.14 -39.14,-10.31 -26.78,-10.31 -41.22,-59.77 -2.07,-8.25 -4.11,-14.44 -4.11,-22.68 -4.14,-14.43 -2.07,-12.38 -10.32,-18.56 -8.24,12.37 -6.17,53.6 -6.17,72.16l-12.37 138.11c-4.14,12.37 -12.37,55.67 -6.18,63.9l0.01 0z"/>
 <path class="fil6" d="M2082.64 2240.23c2.06,-4.14 2.06,-6.19 6.18,-10.32 4.11,-6.18 -6.18,-4.11 8.24,-6.18 20.61,-20.61 86.55,-84.51 113.35,-105.14 8.25,-6.19 35.04,-22.69 37.1,-33 -16.48,-8.23 -59.76,24.75 -82.44,28.87 -26.79,4.13 -72.14,-53.6 -98.93,-78.34l-117.47 -125.76c-20.6,-26.8 -94.8,-103.07 -113.36,-129.86 -6.18,-8.25 -22.67,-24.75 -20.6,-37.1 4.11,-22.67 39.14,-57.73 39.14,-84.52 -14.44,2.06 -16.48,10.31 -24.73,22.67 -8.24,8.25 -18.54,16.48 -24.72,24.75 -35.04,35.04 -92.74,88.64 -129.83,117.49 -10.31,6.18 -22.67,12.37 -22.67,24.75 20.6,2.06 65.96,-30.93 82.44,-32.99 16.48,-2.06 30.93,14.43 39.14,20.61 53.59,53.6 150.45,156.68 201.99,214.4l55.63 61.84c47.4,59.79 68.01,49.48 30.93,115.45 -8.24,16.48 -16.48,24.75 -16.48,45.36 14.42,-4.13 18.55,-14.44 37.09,-32.98l-0.02 0.01z"/>
 <path class="fil6" d="M3240.92 6903.22l-20.61 2.07c4.13,12.37 0,4.11 22.69,14.44 41.22,16.48 61.83,4.11 61.83,53.6 0,47.41 4.13,377.24 -4.11,397.86 -6.18,14.43 -10.32,12.37 -26.8,18.55 -10.31,4.13 -14.42,6.18 -28.85,10.31 -32.97,8.25 -24.73,8.25 -30.93,16.48 125.73,-6.18 117.48,-6.18 243.21,0 -4.14,-12.37 -6.18,-10.31 -18.55,-14.43 -8.25,-2.06 -14.44,-4.11 -24.73,-6.18 -16.48,-6.18 -28.85,-10.32 -41.22,-24.73l0 -478.26c-49.46,2.07 -82.44,8.25 -131.9,10.32l-0.03 -0.03z"/>
 <path class="fil7" d="M9612.98 6851.21l-201.85 0 0 -971.97 201.85 0 0 971.97zm8220.33 0l-201.85 0 0 -971.97 201.85 0 0 971.97zm-7139.71 0l-201.86 0 -437.02 -663.36 0 663.36 -202.71 0 0 -971.97 202.71 0 437.02 664.21 0 -664.21 201.86 0 0 971.97zm769.99 -255.38c0,-36.45 -14.52,-66.06 -43.56,-87.98 -28.75,-21.92 -85.7,-43.56 -170.54,-64.62 -84.84,-21.07 -151.74,-45.27 -200.43,-72.6 -48.98,-27.33 -85.13,-59.22 -108.19,-95.66 -23.06,-36.44 -34.45,-80.28 -34.45,-131.53 0,-81.15 34.17,-147.77 102.49,-199.86 68.34,-52.1 156.88,-78.01 265.34,-78.01 116.73,0 210.39,27.9 281.01,83.42 70.61,55.8 105.9,128.12 105.9,217.22l-202.71 0c0,-45.26 -16.8,-80.56 -50.11,-106.48 -33.31,-25.91 -78.01,-38.72 -134.1,-38.72 -52.95,0 -94.52,10.82 -125.27,32.17 -30.46,21.36 -45.83,50.11 -45.83,85.7 0,32.45 15.66,59.22 47.26,80.29 31.31,21.35 86.83,41.56 166.26,60.92 122.99,30.18 210.97,69.76 264.5,119.29 53.23,49.54 80,113.88 80,192.75 0,85.12 -34.45,151.74 -103.34,200.14 -68.9,48.4 -160.3,72.6 -273.6,72.6 -76.87,0 -146.91,-12.81 -210.68,-38.73 -63.78,-25.91 -113.04,-62.63 -148.05,-109.89 -35.02,-47.26 -52.67,-102.49 -52.67,-165.41l203.56 0c0,106.76 71.17,160.29 213.52,160.29 54.1,0 96.52,-10.25 127.27,-30.75 30.75,-20.79 46.4,-48.68 46.4,-84.56zm1157.76 -552.62l-322 0 0 807.99 -202.72 0 0 -807.99 -318.01 0 0 -163.98 842.73 0 0 163.98zm373.4 807.99l-201.85 0 0 -971.97 201.85 0 0 971.97zm1013.14 -807.99l-322 0 0 807.99 -202.72 0 0 -807.99 -318.01 0 0 -163.98 842.73 0 0 163.98zm939.4 -163.98l0 640.01c0,105.91 -35.87,189.9 -107.34,252.25 -71.46,62.34 -167.97,93.38 -289.83,93.38 -121.85,0 -218.36,-30.75 -289.54,-92.24 -71.18,-61.5 -106.76,-145.77 -106.76,-253.39l0 -640.01 201 0 0 640.57c0,64.06 17.64,110.47 52.67,139.51 35.02,28.76 82.56,43.28 142.63,43.28 127.26,0 192.18,-58.93 194.45,-176.8l0 -646.56 202.71 0zm987.79 163.98l-322 0 0 807.99 -202.72 0 0 -807.99 -318.01 0 0 -163.98 842.73 0 0 163.98zm1007.44 344.21c0,146.91 -40.14,263.06 -120.43,348.76 -80.57,85.7 -186.49,128.69 -318.29,128.69 -131.25,0 -237.73,-42.99 -319.44,-128.97 -81.7,-85.98 -122.7,-203.56 -122.7,-352.74l0 -38.44c0,-95.66 18.5,-180.22 55.51,-253.39 37.01,-73.17 88.82,-128.97 155.44,-167.69 66.9,-38.72 143.21,-58.08 229.47,-58.08 133.52,0 240.29,43.56 320.29,130.68 80.01,87.12 120.15,204.99 120.15,353.6l0 37.58zm-201.86 -44.42c0,-101.92 -20.78,-179.65 -62.63,-233.17 -41.57,-53.52 -100.22,-80.28 -175.95,-80.28 -74.59,0 -132.96,26.76 -175.09,80.28 -42.43,53.53 -63.49,131.25 -63.49,233.17l0 44.42c0,99.07 21.36,176.52 63.78,232.03 42.7,55.51 101.35,83.13 176.52,83.13 75.73,0 134.09,-27.05 175.09,-81.43 41.28,-54.37 61.78,-132.38 61.78,-233.74l0 -44.42zm2173.26 508.2l-201.86 0 -437.02 -663.36 0 663.36 -202.71 0 0 -971.97 202.71 0 437.02 664.21 0 -664.21 201.86 0 0 971.97zm844.58 -396.3l-415.38 0 0 396.3 -202.71 0 0 -971.97 673.89 0 0 163.98 -471.19 0 0 249.4 415.38 0 0 162.28zm1058.12 396.3l-201.86 0 -437.02 -663.36 0 663.36 -202.71 0 0 -971.97 202.71 0 437.02 664.21 0 -664.21 201.86 0 0 971.97zm847.72 -420.22l-418.52 0 0 257.94 490.26 0 0 162.28 -692.97 0 0 -971.97 690.69 0 0 163.98 -487.98 0 0 225.49 418.52 0 0 162.28zm1010 -387.77l-322 0 0 807.99 -202.72 0 0 -807.99 -318.01 0 0 -163.98 842.73 0 0 163.98z"/>
 <polygon class="fil1" points="8320.81,4509.1 8656.13,4171.06 8320.81,3833.01 8320.81,1092.73 8267.42,1092.73 8267.42,7249.38 8320.81,7249.38 "/>
 <path class="fil8" d="M10064.86 2167.41l-415.67 0 0 310.32 485.9 0 0 140.93 -661.7 0 0 -1012.12 656.71 0 0 142.35 -480.91 0 0 279.01 415.67 0 0 139.51zm767.65 190.51c0,-44.37 -15.66,-78.77 -46.98,-102.73 -31.31,-24.2 -87.79,-48.4 -169.16,-73.08 -81.61,-24.43 -146.62,-51.96 -194.78,-82.09 -92.05,-57.89 -138.33,-133.57 -138.33,-226.82 0,-81.61 33.22,-148.76 99.89,-201.67 66.43,-52.9 152.79,-79.24 258.84,-79.24 70.46,0 133.1,13.04 188.38,38.91 55.04,26.1 98.46,62.87 130.01,111.04 31.32,47.92 47.21,101.07 47.21,159.67l-175.09 0c0,-52.91 -16.6,-94.19 -49.82,-123.85 -32.98,-29.89 -80.43,-44.84 -142.12,-44.84 -57.41,0 -102.02,12.34 -133.81,36.77 -31.8,24.44 -47.69,58.6 -47.69,102.74 0,37.01 17.32,67.85 51.48,92.53 34.4,24.68 90.87,48.63 169.64,72.13 78.77,23.24 142.12,50.06 189.8,79.95 47.69,29.9 82.56,64.3 104.86,102.97 22.3,38.91 33.45,84.23 33.45,136.19 0,84.47 -32.27,151.6 -97.04,201.67 -64.53,49.82 -152.32,74.73 -263.11,74.73 -73.08,0 -140.45,-13.52 -201.9,-40.81 -61.46,-27.05 -109.14,-64.53 -143.07,-112.22 -34.17,-47.7 -51.25,-103.44 -51.25,-167.03l176.04 0c0,57.41 18.98,101.78 56.94,133.33 37.96,31.56 92.29,47.21 163.23,47.21 61.21,0 107.23,-12.34 138.08,-37.24 30.84,-24.68 46.26,-57.42 46.26,-98.23zm1126.85 -69.04c-10.21,107.95 -50.07,192.42 -119.58,253.16 -69.51,60.5 -161.8,90.86 -277.35,90.86 -80.66,0 -151.6,-19.22 -213.05,-57.41 -61.46,-38.2 -108.67,-92.54 -142.12,-163 -33.45,-70.46 -50.77,-152.31 -52.19,-245.55l0 -94.67c0,-95.61 17.08,-179.61 50.77,-252.44 33.93,-72.83 82.33,-129.06 145.67,-168.45 63.35,-39.38 136.42,-59.07 219.22,-59.07 111.75,0 201.67,30.36 269.76,90.87 68.09,60.73 107.71,146.38 118.87,257.18l-175.1 0c-8.3,-72.6 -29.66,-125.27 -63.58,-157.3 -34.17,-32.27 -83.98,-48.4 -149.95,-48.4 -76.4,0 -135,27.99 -176.03,83.75 -41.05,55.99 -62.16,137.84 -62.88,245.79l0 89.68c0,109.62 19.46,192.89 58.6,250.54 39.15,57.41 96.56,86.12 172.01,86.12 69.04,0 121,-15.42 155.64,-46.51 34.88,-31.08 56.95,-82.8 66.2,-155.16l175.1 0zm989.24 -149.94c0,99.41 -17.31,186.48 -51.48,261.21 -34.4,74.97 -83.28,132.39 -147.09,172.48 -63.58,40.1 -136.9,60.27 -219.94,60.27 -82.1,0 -155.16,-20.17 -219.22,-60.27 -64.3,-40.09 -113.88,-97.27 -148.76,-171.29 -35.12,-74.26 -52.67,-159.9 -53.14,-256.71l0 -57.18c0,-98.7 17.31,-185.77 52.43,-261.45 34.87,-75.69 84.22,-133.34 148.05,-173.43 63.58,-40.1 136.65,-60.27 219.22,-60.27 82.56,0 155.64,19.93 219.22,59.55 63.82,39.63 112.93,96.56 147.81,171.06 34.64,74.5 52.43,161.09 52.9,259.79l0 56.23zm-176.03 -52.68c0,-112.22 -21.11,-198.1 -63.58,-257.66 -42.23,-59.78 -102.49,-89.68 -180.31,-89.68 -75.92,0 -135.47,29.66 -178.18,89.21 -42.94,59.56 -64.76,143.78 -65.71,252.44l0 58.37c0,111.27 21.59,197.15 65.01,257.66 43.18,60.73 103.44,91.1 180.31,91.1 77.82,0 137.61,-29.66 179.6,-88.98 42,-59.31 62.88,-145.91 62.88,-259.78l0 -52.68zm552.22 391.47l459.32 0 0 140.93 -635.13 0 0 -1012.12 175.8 0 0 871.19zm1198.75 -93.95l-391.95 0 -82.09 234.88 -182.69 0 382.22 -1012.12 157.78 0 382.92 1012.12 -183.39 0 -82.8 -234.88zm-342.6 -142.35l293.25 0 -146.63 -420.18 -146.62 420.18zm1678.28 116.49c0,-44.37 -15.66,-78.77 -46.98,-102.73 -31.31,-24.2 -87.79,-48.4 -169.16,-73.08 -81.61,-24.43 -146.62,-51.96 -194.78,-82.09 -92.05,-57.89 -138.33,-133.57 -138.33,-226.82 0,-81.61 33.22,-148.76 99.89,-201.67 66.43,-52.9 152.79,-79.24 258.84,-79.24 70.46,0 133.1,13.04 188.38,38.91 55.04,26.1 98.46,62.87 130.01,111.04 31.32,47.92 47.21,101.07 47.21,159.67l-175.09 0c0,-52.91 -16.6,-94.19 -49.82,-123.85 -32.98,-29.89 -80.43,-44.84 -142.12,-44.84 -57.41,0 -102.02,12.34 -133.81,36.77 -31.8,24.44 -47.69,58.6 -47.69,102.74 0,37.01 17.32,67.85 51.48,92.53 34.4,24.68 90.87,48.63 169.64,72.13 78.77,23.24 142.12,50.06 189.8,79.95 47.69,29.9 82.56,64.3 104.86,102.97 22.3,38.91 33.45,84.23 33.45,136.19 0,84.47 -32.27,151.6 -97.04,201.67 -64.53,49.82 -152.32,74.73 -263.11,74.73 -73.08,0 -140.45,-13.52 -201.9,-40.81 -61.46,-27.05 -109.14,-64.53 -143.07,-112.22 -34.17,-47.7 -51.25,-103.44 -51.25,-167.03l176.04 0c0,57.41 18.98,101.78 56.94,133.33 37.96,31.56 92.29,47.21 163.23,47.21 61.21,0 107.23,-12.34 138.08,-37.24 30.84,-24.68 46.26,-57.42 46.26,-98.23zm1094.82 -751.38l0 676.65c0,107.48 -34.4,192.65 -103.21,255.52 -68.8,62.88 -160.38,94.19 -274.98,94.19 -115.78,0 -207.83,-30.84 -275.93,-92.77 -68.09,-61.92 -102.02,-147.81 -102.02,-257.66l0 -675.93 175.1 0 0 676.88c0,67.62 17.08,119.34 51.48,154.93 34.17,35.82 84.71,53.62 151.37,53.62 135.47,0 203.09,-71.41 203.09,-214.01l0 -671.42 175.1 0zm388.05 637.74l0 374.38 -175.8 0 0 -1012.12 387.19 0c112.93,0 202.85,29.42 269.28,88.49 66.43,59.09 99.88,137.14 99.88,234.17 0,99.41 -32.74,176.76 -97.74,232.03 -65.01,55.28 -156.35,83.04 -273.55,83.04l-209.25 0zm0 -142.35l211.39 0c62.64,0 110.32,-14.71 143.3,-44.13 32.74,-29.42 49.35,-71.89 49.35,-127.4 0,-54.81 -16.85,-98.46 -50.07,-131.2 -33.45,-32.5 -79.24,-49.35 -137.84,-50.3l-216.13 0 0 353.04zm1350.58 65.48l-415.67 0 0 310.32 485.9 0 0 140.93 -661.7 0 0 -1012.12 656.71 0 0 142.35 -480.91 0 0 279.01 415.67 0 0 139.51zm610.12 62.64l-195.98 0 0 388.62 -175.8 0 0 -1012.12 355.88 0c116.73,0 206.88,26.34 270.23,78.77 63.58,52.44 95.38,128.36 95.38,227.52 0,67.86 -16.37,124.57 -49.12,170.35 -32.74,45.79 -78.29,80.91 -136.65,105.57l227.29 420.89 0 9.02 -188.38 0 -202.85 -388.62zm-195.98 -142.35l180.55 0c59.31,0 105.81,-14.95 139.03,-44.84 33.45,-29.9 50.06,-70.71 50.06,-122.43 0,-54.09 -15.42,-96.09 -46.26,-125.75 -30.61,-29.66 -76.64,-44.84 -137.84,-45.79l-185.54 0 0 338.8zm922.81 530.97l-175.09 0 0 -1012.12 175.09 0 0 1012.12zm1048.33 -479.72c0,99.41 -17.31,186.48 -51.48,261.21 -34.4,74.97 -83.28,132.39 -147.09,172.48 -63.58,40.1 -136.9,60.27 -219.94,60.27 -82.1,0 -155.16,-20.17 -219.22,-60.27 -64.3,-40.09 -113.88,-97.27 -148.76,-171.29 -35.12,-74.26 -52.67,-159.9 -53.14,-256.71l0 -57.18c0,-98.7 17.31,-185.77 52.43,-261.45 34.87,-75.69 84.22,-133.34 148.05,-173.43 63.58,-40.1 136.65,-60.27 219.22,-60.27 82.56,0 155.64,19.93 219.22,59.55 63.82,39.63 112.93,96.56 147.81,171.06 34.64,74.5 52.43,161.09 52.9,259.79l0 56.23zm-176.03 -52.68c0,-112.22 -21.11,-198.1 -63.58,-257.66 -42.23,-59.78 -102.49,-89.68 -180.31,-89.68 -75.92,0 -135.47,29.66 -178.18,89.21 -42.94,59.56 -64.76,143.78 -65.71,252.44l0 58.37c0,111.27 21.59,197.15 65.01,257.66 43.18,60.73 103.44,91.1 180.31,91.1 77.82,0 137.61,-29.66 179.6,-88.98 42,-59.31 62.88,-145.91 62.88,-259.78l0 -52.68zm748.2 143.78l-195.98 0 0 388.62 -175.8 0 0 -1012.12 355.88 0c116.73,0 206.88,26.34 270.23,78.77 63.58,52.44 95.38,128.36 95.38,227.52 0,67.86 -16.37,124.57 -49.12,170.35 -32.74,45.79 -78.29,80.91 -136.65,105.57l227.29 420.89 0 9.02 -188.38 0 -202.85 -388.62zm-195.98 -142.35l180.55 0c59.31,0 105.81,-14.95 139.03,-44.84 33.45,-29.9 50.06,-70.71 50.06,-122.43 0,-54.09 -15.42,-96.09 -46.26,-125.75 -30.61,-29.66 -76.64,-44.84 -137.84,-45.79l-185.54 0 0 338.8zm1137.59 530.97l0 -1012.12 298.94 0c89.44,0 168.68,19.93 237.96,59.79 69.27,39.86 122.89,96.32 160.85,169.63 37.96,73.08 56.95,157.07 56.95,251.73l0 50.53c0,96.09 -18.99,180.31 -57.18,253.15 -38.2,72.83 -92.77,128.83 -163.46,168.22 -70.71,39.38 -151.61,59.07 -242.95,59.07l-291.11 0zm175.8 -869.77l0 728.84 114.59 0c92.29,0 162.99,-28.71 212.34,-86.36 49.35,-57.65 74.5,-140.45 75.45,-248.16l0 -56.23c0,-109.62 -23.73,-193.37 -71.41,-251.25 -47.93,-57.89 -117.2,-86.84 -207.83,-86.84l-123.13 0zm1330.89 634.89l-391.95 0 -82.09 234.88 -182.69 0 382.22 -1012.12 157.78 0 382.92 1012.12 -183.39 0 -82.8 -234.88zm-342.6 -142.35l293.25 0 -146.63 -420.18 -146.62 420.18zm-13551.24 1215.92l-315.55 0 0 869.77 -174.61 0 0 -869.77 -312.71 0 0 -142.35 802.87 0 0 142.35zm749.15 418.52l-415.67 0 0 310.32 485.9 0 0 140.93 -661.7 0 0 -1012.12 656.71 0 0 142.35 -480.91 0 0 279.01 415.67 0 0 139.51zm1010.6 121.47c-10.21,107.95 -50.07,192.42 -119.58,253.16 -69.51,60.5 -161.8,90.86 -277.35,90.86 -80.66,0 -151.6,-19.22 -213.05,-57.41 -61.46,-38.2 -108.67,-92.54 -142.12,-163 -33.45,-70.46 -50.77,-152.31 -52.19,-245.55l0 -94.67c0,-95.61 17.08,-179.61 50.77,-252.44 33.93,-72.83 82.33,-129.06 145.67,-168.45 63.35,-39.38 136.42,-59.07 219.22,-59.07 111.75,0 201.67,30.36 269.76,90.87 68.09,60.73 107.71,146.38 118.87,257.18l-175.1 0c-8.3,-72.6 -29.66,-125.27 -63.58,-157.3 -34.17,-32.27 -83.98,-48.4 -149.95,-48.4 -76.4,0 -135,27.99 -176.03,83.75 -41.05,55.99 -62.16,137.84 -62.88,245.79l0 89.68c0,109.62 19.46,192.89 58.6,250.54 39.15,57.41 96.56,86.12 172.01,86.12 69.04,0 121,-15.42 155.64,-46.51 34.88,-31.08 56.95,-82.8 66.2,-155.16l175.1 0zm984.74 329.78l-176.04 0 -451.02 -718.16 0 718.16 -175.8 0 0 -1012.12 175.8 0 452.44 720.77 0 -720.77 174.62 0 0 1012.12zm1040.02 -479.72c0,99.41 -17.31,186.48 -51.48,261.21 -34.4,74.97 -83.28,132.39 -147.09,172.48 -63.58,40.1 -136.9,60.27 -219.94,60.27 -82.1,0 -155.16,-20.17 -219.22,-60.27 -64.3,-40.09 -113.88,-97.27 -148.76,-171.29 -35.12,-74.26 -52.67,-159.9 -53.14,-256.71l0 -57.18c0,-98.7 17.31,-185.77 52.43,-261.45 34.87,-75.69 84.22,-133.34 148.05,-173.43 63.58,-40.1 136.65,-60.27 219.22,-60.27 82.56,0 155.64,19.93 219.22,59.55 63.82,39.63 112.93,96.56 147.81,171.06 34.64,74.5 52.43,161.09 52.9,259.79l0 56.23zm-176.03 -52.68c0,-112.22 -21.11,-198.1 -63.58,-257.66 -42.23,-59.78 -102.49,-89.68 -180.31,-89.68 -75.92,0 -135.47,29.66 -178.18,89.21 -42.94,59.56 -64.76,143.78 -65.71,252.44l0 58.37c0,111.27 21.59,197.15 65.01,257.66 43.18,60.73 103.44,91.1 180.31,91.1 77.82,0 137.61,-29.66 179.6,-88.98 42,-59.31 62.88,-145.91 62.88,-259.78l0 -52.68zm552.22 391.47l459.32 0 0 140.93 -635.13 0 0 -1012.12 175.8 0 0 871.19zm1382.14 -338.79c0,99.41 -17.31,186.48 -51.48,261.21 -34.4,74.97 -83.28,132.39 -147.09,172.48 -63.58,40.1 -136.9,60.27 -219.94,60.27 -82.1,0 -155.16,-20.17 -219.22,-60.27 -64.3,-40.09 -113.88,-97.27 -148.76,-171.29 -35.12,-74.26 -52.67,-159.9 -53.14,-256.71l0 -57.18c0,-98.7 17.31,-185.77 52.43,-261.45 34.87,-75.69 84.22,-133.34 148.05,-173.43 63.58,-40.1 136.65,-60.27 219.22,-60.27 82.56,0 155.64,19.93 219.22,59.55 63.82,39.63 112.93,96.56 147.81,171.06 34.64,74.5 52.43,161.09 52.9,259.79l0 56.23zm-176.03 -52.68c0,-112.22 -21.11,-198.1 -63.58,-257.66 -42.23,-59.78 -102.49,-89.68 -180.31,-89.68 -75.92,0 -135.47,29.66 -178.18,89.21 -42.94,59.56 -64.76,143.78 -65.71,252.44l0 58.37c0,111.27 21.59,197.15 65.01,257.66 43.18,60.73 103.44,91.1 180.31,91.1 77.82,0 137.61,-29.66 179.6,-88.98 42,-59.31 62.88,-145.91 62.88,-259.78l0 -52.68zm1152.24 401.2c-36.54,47.69 -87.31,83.99 -152.09,108.67 -65.01,24.43 -138.56,36.77 -221.12,36.77 -84.7,0 -159.91,-19.22 -225.15,-57.65 -65.48,-38.67 -115.78,-93.72 -151.13,-165.36 -35.59,-71.65 -54.1,-155.16 -55.28,-250.78l0 -79.25c0,-153.02 36.54,-272.6 109.85,-358.48 73.08,-86.12 175.33,-129.06 306.29,-129.06 112.7,0 202.14,27.99 268.34,83.99 66.43,55.99 106.29,136.42 119.57,241.04l-172.24 0c-19.46,-121.71 -90.16,-182.68 -212.11,-182.68 -78.77,0 -138.56,28.24 -179.61,84.94 -41.04,56.7 -62.15,139.98 -63.57,249.59l0 77.82c0,109.14 23.01,194.07 69.03,254.34 46.27,60.5 110.33,90.63 192.18,90.63 89.92,0 153.98,-20.4 191.94,-61.21l0 -197.86 -208.55 0 0 -133.82 383.64 0 0 388.39zm403.47 131.2l-175.09 0 0 -1012.12 175.09 0 0 1012.12zm819.86 -234.88l-391.95 0 -82.09 234.88 -182.69 0 382.22 -1012.12 157.78 0 382.92 1012.12 -183.39 0 -82.8 -234.88zm-342.6 -142.35l293.25 0 -146.63 -420.18 -146.62 420.18zm1148.73 377.23l0 -1012.12 298.94 0c89.44,0 168.68,19.93 237.96,59.79 69.27,39.86 122.89,96.32 160.85,169.63 37.96,73.08 56.95,157.07 56.95,251.73l0 50.53c0,96.09 -18.99,180.31 -57.18,253.15 -38.2,72.83 -92.77,128.83 -163.46,168.22 -70.71,39.38 -151.61,59.07 -242.95,59.07l-291.11 0zm175.8 -869.77l0 728.84 114.59 0c92.29,0 162.99,-28.71 212.34,-86.36 49.35,-57.65 74.5,-140.45 75.45,-248.16l0 -56.23c0,-109.62 -23.73,-193.37 -71.41,-251.25 -47.93,-57.89 -117.2,-86.84 -207.83,-86.84l-123.13 0zm1330.89 634.89l-391.95 0 -82.09 234.88 -182.69 0 382.22 -1012.12 157.78 0 382.92 1012.12 -183.39 0 -82.8 -234.88zm-342.6 -142.35l293.25 0 -146.63 -420.18 -146.62 420.18zm1334.49 377.23l-175.09 0 0 -1012.12 175.09 0 0 1012.12zm1043.83 0l-176.04 0 -451.02 -718.16 0 718.16 -175.8 0 0 -1012.12 175.8 0 452.44 720.77 0 -720.77 174.62 0 0 1012.12zm815.82 -428.47l-407.37 0 0 428.47 -175.8 0 0 -1012.12 642.95 0 0 142.35 -467.15 0 0 300.37 407.37 0 0 140.93zm1031 -51.25c0,99.41 -17.31,186.48 -51.48,261.21 -34.4,74.97 -83.28,132.39 -147.09,172.48 -63.58,40.1 -136.9,60.27 -219.94,60.27 -82.1,0 -155.16,-20.17 -219.22,-60.27 -64.3,-40.09 -113.88,-97.27 -148.76,-171.29 -35.12,-74.26 -52.67,-159.9 -53.14,-256.71l0 -57.18c0,-98.7 17.31,-185.77 52.43,-261.45 34.87,-75.69 84.22,-133.34 148.05,-173.43 63.58,-40.1 136.65,-60.27 219.22,-60.27 82.56,0 155.64,19.93 219.22,59.55 63.82,39.63 112.93,96.56 147.81,171.06 34.64,74.5 52.43,161.09 52.9,259.79l0 56.23zm-176.03 -52.68c0,-112.22 -21.11,-198.1 -63.58,-257.66 -42.23,-59.78 -102.49,-89.68 -180.31,-89.68 -75.92,0 -135.47,29.66 -178.18,89.21 -42.94,59.56 -64.76,143.78 -65.71,252.44l0 58.37c0,111.27 21.59,197.15 65.01,257.66 43.18,60.73 103.44,91.1 180.31,91.1 77.82,0 137.61,-29.66 179.6,-88.98 42,-59.31 62.88,-145.91 62.88,-259.78l0 -52.68zm748.2 143.78l-195.98 0 0 388.62 -175.8 0 0 -1012.12 355.88 0c116.73,0 206.88,26.34 270.23,78.77 63.58,52.44 95.38,128.36 95.38,227.52 0,67.86 -16.37,124.57 -49.12,170.35 -32.74,45.79 -78.29,80.91 -136.65,105.57l227.29 420.89 0 9.02 -188.38 0 -202.85 -388.62zm-195.98 -142.35l180.55 0c59.31,0 105.81,-14.95 139.03,-44.84 33.45,-29.9 50.06,-70.71 50.06,-122.43 0,-54.09 -15.42,-96.09 -46.26,-125.75 -30.61,-29.66 -76.64,-44.84 -137.84,-45.79l-185.54 0 0 338.8zm965.28 -481.15l291.82 775.82 291.35 -775.82 227.29 0 0 1012.12 -175.34 0 0 -333.58 17.56 -446.27 -298.95 779.85 -125.98 0 -297.99 -779.14 17.32 445.56 0 333.58 -175.1 0 0 -1012.12 228 0zm1622.01 777.24l-391.95 0 -82.09 234.88 -182.69 0 382.22 -1012.12 157.78 0 382.92 1012.12 -183.39 0 -82.8 -234.88zm-342.6 -142.35l293.25 0 -146.63 -420.18 -146.62 420.18zm1506.23 47.44c-10.21,107.95 -50.07,192.42 -119.58,253.16 -69.51,60.5 -161.8,90.86 -277.35,90.86 -80.66,0 -151.6,-19.22 -213.05,-57.41 -61.46,-38.2 -108.67,-92.54 -142.12,-163 -33.45,-70.46 -50.77,-152.31 -52.19,-245.55l0 -94.67c0,-95.61 17.08,-179.61 50.77,-252.44 33.93,-72.83 82.33,-129.06 145.67,-168.45 63.35,-39.38 136.42,-59.07 219.22,-59.07 111.75,0 201.67,30.36 269.76,90.87 68.09,60.73 107.71,146.38 118.87,257.18l-175.1 0c-8.3,-72.6 -29.66,-125.27 -63.58,-157.3 -34.17,-32.27 -83.98,-48.4 -149.95,-48.4 -76.4,0 -135,27.99 -176.03,83.75 -41.05,55.99 -62.16,137.84 -62.88,245.79l0 89.68c0,109.62 19.46,192.89 58.6,250.54 39.15,57.41 96.56,86.12 172.01,86.12 69.04,0 121,-15.42 155.64,-46.51 34.88,-31.08 56.95,-82.8 66.2,-155.16l175.1 0zm-336.66 331.21l-7.6 37.25c69.52,12.57 104.16,52.43 104.16,120.05 0,48.4 -19.93,86.36 -59.79,113.64 -39.86,27.29 -95.61,40.81 -167.5,40.81l-4.74 -95.37c30.61,0 54.09,-5.46 70.46,-16.13 16.6,-10.92 24.68,-26.1 24.68,-45.31 0,-20.88 -8.07,-35.12 -24.68,-43.19 -16.37,-8.06 -43.18,-13.29 -80.19,-15.66l22.29 -96.09 122.9 0zm1084.87 -236.3l-391.95 0 -82.09 234.88 -182.69 0 382.22 -1012.12 157.78 0 382.92 1012.12 -183.39 0 -82.8 -234.88zm-342.6 -142.35l293.25 0 -146.63 -420.18 -146.62 420.18zm404.27 -891.13c0,51.01 -14.71,93.47 -44.12,127.17 -29.42,33.93 -66.43,50.77 -110.8,50.77 -18.27,0 -33.93,-1.9 -46.98,-5.93 -13.29,-3.79 -32.03,-12.57 -56.23,-26.34 -24.43,-13.76 -41.51,-22.06 -51.48,-24.91 -9.97,-2.61 -21.11,-4.04 -32.98,-4.04 -17.8,0 -32.75,6.65 -44.84,19.69 -12.34,13.05 -18.51,30.37 -18.51,51.49l-103.67 -5.46c0,-51.25 14.71,-93.96 44.12,-128.83 29.42,-34.87 66.2,-52.19 110.32,-52.19 26.34,0 58.13,10.44 95.61,31.32 37.25,20.87 67.86,31.31 92.05,31.31 17.56,0 32.75,-6.64 45.08,-19.92 12.57,-13.05 18.74,-30.61 18.74,-52.44l103.67 8.3zm1137.06 788.63c0,99.41 -17.31,186.48 -51.48,261.21 -34.4,74.97 -83.28,132.39 -147.09,172.48 -63.58,40.1 -136.9,60.27 -219.94,60.27 -82.1,0 -155.16,-20.17 -219.22,-60.27 -64.3,-40.09 -113.88,-97.27 -148.76,-171.29 -35.12,-74.26 -52.67,-159.9 -53.14,-256.71l0 -57.18c0,-98.7 17.31,-185.77 52.43,-261.45 34.87,-75.69 84.22,-133.34 148.05,-173.43 63.58,-40.1 136.65,-60.27 219.22,-60.27 82.56,0 155.64,19.93 219.22,59.55 63.82,39.63 112.93,96.56 147.81,171.06 34.64,74.5 52.43,161.09 52.9,259.79l0 56.23zm-176.03 -52.68c0,-112.22 -21.11,-198.1 -63.58,-257.66 -42.23,-59.78 -102.49,-89.68 -180.31,-89.68 -75.92,0 -135.47,29.66 -178.18,89.21 -42.94,59.56 -64.76,143.78 -65.71,252.44l0 58.37c0,111.27 21.59,197.15 65.01,257.66 43.18,60.73 103.44,91.1 180.31,91.1 77.82,0 137.61,-29.66 179.6,-88.98 42,-59.31 62.88,-145.91 62.88,-259.78l0 -52.68z"/>
 <line class="fil9 str1" x1="9411.13" y1="5186.32" x2="34869.82" y2= "5186.32" />
</symbol>
 <g id="Layer_x0020_1">
  <metadata id="CorelCorpID_0Corel-Layer"/>
  <use width="42381.18" height="7574.78" xlink:href="#Infnet_x0020_Logo"/>
 </g>
</svg>
